M48
;Layer_Color=9474304
;FILE_FORMAT=2:3
INCH,LZ
;TYPE=PLATED
T1F00S00C0.008
T2F00S00C0.012
T4F00S00C0.031
T5F00S00C0.118
;TYPE=NON_PLATED
T6F00S00C0.020
T7F00S00C0.059
%
T01
X01169Y0022
X01283Y00272
X01287Y00323
X01331
X01382
X01394Y00268
Y00232
X01343Y00269
X01528Y0026
X01531Y00217
X0161Y00228
X01693
X01776
Y00346
X01693Y00354
X0161Y00346
X01768Y00445
X01766Y00628
X01546Y00636
X01378Y00567
X0126Y00524
X01193Y00516
X01372Y00902
X01423
X01075Y00854
X01022Y00972
X00978
X00927
X00938Y01087
X00707Y00913
X00656
X00656Y00587
X00724Y00504
X0085Y00528
X00914
X00915Y00321
X00957Y00323
Y00268
X00969Y00232
X00902Y00268
X00866
X0087Y00323
X00728Y00335
X00713Y00256
X00728Y00217
X00693Y0022
X00555
X00543Y00256
X00506
X00476Y00259
X00454Y00232
X00461Y00308
X00488
X00512
X00535
X00559
X00539Y00504
X00474Y00516
X00406
X00346Y0052
X00356Y00644
X00354Y00866
X00331Y00228
X00244Y00244
X0013Y00157
Y0013
Y00098
X00134Y00071
X00098
X00094Y00098
X00087Y0013
Y00157
X00051
X00055Y00126
Y00098
Y00071
X0111Y0022
X01106Y0026
X0111Y00339
X01138Y00504
X01074Y00624
X00651Y01522
X00601
X00551
X00451
X01215Y01417
X01266
X01275Y01307
Y01244
X01335Y01222
Y01274
X01561Y01337
X01612
X01679Y0152
X01569Y01546
X01579Y01686
X0167Y01697
X01679Y01772
X01776Y01693
Y01598
T02
X01426Y00568
X01546Y00585
X01087Y00528
X00776Y00539
X00705Y00559
X00142Y00409
X00146Y00378
Y00339
X0011Y00335
X00071
Y00374
Y00409
X00106
Y0037
X01016Y01444
X01073Y01439
X01079Y01512
X01142Y01508
T04
X00094Y00543
X00194
X00244Y00643
X00144
X00183Y00891
Y00991
X00083Y01041
Y00941
Y01287
Y01387
X00183Y01337
Y01237
Y0158
Y0168
X00083Y0173
Y0163
T05
X01709Y00098
X00409Y01736
T06
X01776Y01516
Y01776
T07
X00039Y00614
X00112Y00836
Y01182
Y01525
M30
