G04*
G04 #@! TF.GenerationSoftware,Altium Limited,Altium Designer,21.9.2 (33)*
G04*
G04 Layer_Color=16711935*
%FSLAX23Y23*%
%MOIN*%
G70*
G04*
G04 #@! TF.SameCoordinates,057B0E17-ACE6-4E06-8752-021C102DDC49*
G04*
G04*
G04 #@! TF.FilePolarity,Positive*
G04*
G01*
G75*
%ADD10C,0.008*%
%ADD12C,0.005*%
%ADD13C,0.003*%
%ADD14C,0.010*%
%ADD87C,0.001*%
%ADD88C,0.000*%
%ADD89C,0.004*%
G36*
X311Y590D02*
Y912D01*
X751D01*
Y590D01*
X311D01*
D02*
G37*
G36*
X1029Y570D02*
Y892D01*
X1469D01*
Y570D01*
X1029D01*
D02*
G37*
G36*
X1307Y1416D02*
Y976D01*
X867D01*
Y1416D01*
X1307D01*
D02*
G37*
D10*
X1762Y583D02*
G03*
X1762Y583I-4J0D01*
G01*
X1618Y1538D02*
G03*
X1618Y1538I-4J0D01*
G01*
X254Y504D02*
G03*
X254Y504I-4J0D01*
G01*
X704Y1522D02*
G03*
X704Y1522I-4J0D01*
G01*
X1630Y1739D02*
G03*
X1630Y1739I-4J0D01*
G01*
D12*
X1862Y1780D02*
G03*
X1886Y1793I5J19D01*
G01*
X1858Y1795D02*
G03*
X1874Y1800I5J10D01*
G01*
X1884Y1498D02*
G03*
X1862Y1512I-18J-4D01*
G01*
X1874Y1491D02*
G03*
X1858Y1496I-10J-5D01*
G01*
X1690Y564D02*
Y682D01*
X1631Y564D02*
X1690D01*
X1631D02*
Y682D01*
X1690D01*
X1516Y1469D02*
X1634D01*
Y1410D02*
Y1469D01*
X1516Y1410D02*
X1634D01*
X1516D02*
Y1469D01*
X62Y289D02*
Y482D01*
Y289D02*
X218D01*
Y482D01*
X62D02*
X218D01*
X1833Y1795D02*
Y1888D01*
X1874Y1800D02*
X1886Y1793D01*
X1862Y1772D02*
X1884D01*
Y1520D02*
Y1772D01*
X1862Y1520D02*
X1884D01*
X1874Y1491D02*
X1884Y1498D01*
X1661Y1496D02*
X1858D01*
X1860D01*
Y1795D01*
X1833D02*
X1860D01*
X1661D02*
X1833D01*
X1661Y1496D02*
Y1795D01*
X1638Y1608D02*
Y1673D01*
X1520Y1608D02*
X1638D01*
X1520D02*
Y1673D01*
X1638D01*
D13*
X1433Y807D02*
X1400Y774D01*
Y807D02*
X1433Y774D01*
X1416Y807D02*
Y774D01*
X1400Y791D02*
X1433D01*
X715Y827D02*
X682Y794D01*
Y827D02*
X715Y794D01*
X698Y827D02*
Y794D01*
X682Y810D02*
X715D01*
X944Y1057D02*
X977Y1090D01*
Y1057D02*
X944Y1090D01*
X961Y1057D02*
Y1090D01*
X977Y1073D02*
X944D01*
D14*
X1827Y1833D02*
X1811D01*
Y1841D01*
X1813Y1843D01*
X1819D01*
X1821Y1841D01*
Y1833D01*
X1813Y1859D02*
X1811Y1857D01*
Y1851D01*
X1813Y1849D01*
X1824D01*
X1827Y1851D01*
Y1857D01*
X1824Y1859D01*
X1811Y1865D02*
X1827D01*
Y1873D01*
X1824Y1875D01*
X1821D01*
X1819Y1873D01*
Y1865D01*
Y1873D01*
X1816Y1875D01*
X1813D01*
X1811Y1873D01*
Y1865D01*
Y1907D02*
Y1897D01*
X1827D01*
Y1907D01*
X1819Y1897D02*
Y1902D01*
X1827Y1913D02*
X1811D01*
X1827Y1923D01*
X1811D01*
Y1929D02*
X1827D01*
Y1937D01*
X1824Y1939D01*
X1813D01*
X1811Y1937D01*
Y1929D01*
D87*
X1054Y810D02*
X1444D01*
Y653D02*
Y810D01*
X1054Y653D02*
X1444D01*
X1054D02*
Y810D01*
X1434Y609D02*
Y653D01*
X1415Y609D02*
X1434D01*
X1415D02*
Y653D01*
X1434D01*
X1384Y609D02*
Y653D01*
X1365Y609D02*
X1384D01*
X1365D02*
Y653D01*
X1384D01*
X1334Y609D02*
Y653D01*
X1315Y609D02*
X1334D01*
X1315D02*
Y653D01*
X1334D01*
X1284Y609D02*
Y653D01*
X1265Y609D02*
X1284D01*
X1265D02*
Y653D01*
X1284D01*
X1234Y609D02*
Y653D01*
X1215Y609D02*
X1234D01*
X1215D02*
Y653D01*
X1234D01*
X1184Y609D02*
Y653D01*
X1165Y609D02*
X1184D01*
X1165D02*
Y653D01*
X1184D01*
X1134Y609D02*
Y653D01*
X1115Y609D02*
X1134D01*
X1115D02*
Y653D01*
X1134D01*
X1084Y609D02*
Y653D01*
X1065Y609D02*
X1084D01*
X1065D02*
Y653D01*
X1084D01*
X1065Y810D02*
Y853D01*
X1084D01*
Y810D02*
Y853D01*
X1065Y810D02*
X1084D01*
X1115D02*
Y853D01*
X1134D01*
Y810D02*
Y853D01*
X1115Y810D02*
X1134D01*
X1165D02*
Y853D01*
X1184D01*
Y810D02*
Y853D01*
X1165Y810D02*
X1184D01*
X1215D02*
Y853D01*
X1234D01*
Y810D02*
Y853D01*
X1215Y810D02*
X1234D01*
X1265D02*
Y853D01*
X1284D01*
Y810D02*
Y853D01*
X1265Y810D02*
X1284D01*
X1315D02*
Y853D01*
X1334D01*
Y810D02*
Y853D01*
X1315Y810D02*
X1334D01*
X1365D02*
Y853D01*
X1384D01*
Y810D02*
Y853D01*
X1365Y810D02*
X1384D01*
X1415D02*
Y853D01*
X1434D01*
Y810D02*
Y853D01*
X1415Y810D02*
X1434D01*
X336Y829D02*
X726D01*
Y672D02*
Y829D01*
X336Y672D02*
X726D01*
X336D02*
Y829D01*
X716Y629D02*
Y672D01*
X697Y629D02*
X716D01*
X697D02*
Y672D01*
X716D01*
X666Y629D02*
Y672D01*
X647Y629D02*
X666D01*
X647D02*
Y672D01*
X666D01*
X616Y629D02*
Y672D01*
X597Y629D02*
X616D01*
X597D02*
Y672D01*
X616D01*
X566Y629D02*
Y672D01*
X547Y629D02*
X566D01*
X547D02*
Y672D01*
X566D01*
X516Y629D02*
Y672D01*
X497Y629D02*
X516D01*
X497D02*
Y672D01*
X516D01*
X466Y629D02*
Y672D01*
X447Y629D02*
X466D01*
X447D02*
Y672D01*
X466D01*
X416Y629D02*
Y672D01*
X397Y629D02*
X416D01*
X397D02*
Y672D01*
X416D01*
X366Y629D02*
Y672D01*
X347Y629D02*
X366D01*
X347D02*
Y672D01*
X366D01*
X347Y829D02*
Y873D01*
X366D01*
Y829D02*
Y873D01*
X347Y829D02*
X366D01*
X397D02*
Y873D01*
X416D01*
Y829D02*
Y873D01*
X397Y829D02*
X416D01*
X447D02*
Y873D01*
X466D01*
Y829D02*
Y873D01*
X447Y829D02*
X466D01*
X497D02*
Y873D01*
X516D01*
Y829D02*
Y873D01*
X497Y829D02*
X516D01*
X547D02*
Y873D01*
X566D01*
Y829D02*
Y873D01*
X547Y829D02*
X566D01*
X597D02*
Y873D01*
X616D01*
Y829D02*
Y873D01*
X597Y829D02*
X616D01*
X647D02*
Y873D01*
X666D01*
Y829D02*
Y873D01*
X647Y829D02*
X666D01*
X697D02*
Y873D01*
X716D01*
Y829D02*
Y873D01*
X697Y829D02*
X716D01*
X945Y1297D02*
Y1315D01*
X906D02*
X945D01*
X906Y1297D02*
Y1315D01*
Y1297D02*
X945D01*
Y1266D02*
Y1283D01*
X906D02*
X945D01*
X906Y1266D02*
Y1283D01*
Y1266D02*
X945D01*
Y1234D02*
Y1252D01*
X906D02*
X945D01*
X906Y1234D02*
Y1252D01*
Y1234D02*
X945D01*
Y1203D02*
Y1220D01*
X906D02*
X945D01*
X906Y1203D02*
Y1220D01*
Y1203D02*
X945D01*
Y1171D02*
Y1189D01*
X906D02*
X945D01*
X906Y1171D02*
Y1189D01*
Y1171D02*
X945D01*
Y1140D02*
Y1157D01*
X906D02*
X945D01*
X906Y1140D02*
Y1157D01*
Y1140D02*
X945D01*
Y1108D02*
Y1126D01*
X906D02*
X945D01*
X906Y1108D02*
Y1126D01*
Y1108D02*
X945D01*
Y1077D02*
Y1094D01*
X906D02*
X945D01*
X906Y1077D02*
Y1094D01*
Y1077D02*
X945D01*
X968Y1054D02*
X985D01*
X968Y1015D02*
Y1054D01*
Y1015D02*
X985D01*
Y1054D01*
X999D02*
X1017D01*
X999Y1015D02*
Y1054D01*
Y1015D02*
X1017D01*
Y1054D01*
X1031D02*
X1048D01*
X1031Y1015D02*
Y1054D01*
Y1015D02*
X1048D01*
Y1054D01*
X1062D02*
X1080D01*
X1062Y1015D02*
Y1054D01*
Y1015D02*
X1080D01*
Y1054D01*
X1094D02*
X1111D01*
X1094Y1015D02*
Y1054D01*
Y1015D02*
X1111D01*
Y1054D01*
X1125D02*
X1143D01*
X1125Y1015D02*
Y1054D01*
Y1015D02*
X1143D01*
Y1054D01*
X1156D02*
X1174D01*
X1156Y1015D02*
Y1054D01*
Y1015D02*
X1174D01*
Y1054D01*
X1188D02*
X1206D01*
X1188Y1015D02*
Y1054D01*
Y1015D02*
X1206D01*
Y1054D01*
X1228Y1077D02*
Y1094D01*
Y1077D02*
X1268D01*
Y1094D01*
X1228D02*
X1268D01*
X1228Y1108D02*
Y1126D01*
Y1108D02*
X1268D01*
Y1126D01*
X1228D02*
X1268D01*
X1228Y1140D02*
Y1157D01*
Y1140D02*
X1268D01*
Y1157D01*
X1228D02*
X1268D01*
X1228Y1171D02*
Y1189D01*
Y1171D02*
X1268D01*
Y1189D01*
X1228D02*
X1268D01*
X1228Y1203D02*
Y1220D01*
Y1203D02*
X1268D01*
Y1220D01*
X1228D02*
X1268D01*
X1228Y1234D02*
Y1252D01*
Y1234D02*
X1268D01*
Y1252D01*
X1228D02*
X1268D01*
X1228Y1266D02*
Y1283D01*
Y1266D02*
X1268D01*
Y1283D01*
X1228D02*
X1268D01*
X1228Y1297D02*
Y1315D01*
Y1297D02*
X1268D01*
Y1315D01*
X1228D02*
X1268D01*
X1188Y1337D02*
X1206D01*
Y1377D01*
X1188D02*
X1206D01*
X1188Y1337D02*
Y1377D01*
X1156Y1337D02*
X1174D01*
Y1377D01*
X1156D02*
X1174D01*
X1156Y1337D02*
Y1377D01*
X1125Y1337D02*
X1143D01*
Y1377D01*
X1125D02*
X1143D01*
X1125Y1337D02*
Y1377D01*
X1094Y1337D02*
X1111D01*
Y1377D01*
X1094D02*
X1111D01*
X1094Y1337D02*
Y1377D01*
X1062Y1337D02*
X1080D01*
Y1377D01*
X1062D02*
X1080D01*
X1062Y1337D02*
Y1377D01*
X1031Y1337D02*
X1048D01*
Y1377D01*
X1031D02*
X1048D01*
X1031Y1337D02*
Y1377D01*
X999Y1337D02*
X1017D01*
Y1377D01*
X999D02*
X1017D01*
X999Y1337D02*
Y1377D01*
X968Y1337D02*
X985D01*
Y1377D01*
X968D02*
X985D01*
X968Y1337D02*
Y1377D01*
X945Y1104D02*
X995Y1054D01*
X1228D02*
Y1337D01*
X945D02*
X1228D01*
X945Y1054D02*
Y1337D01*
Y1054D02*
X1228D01*
X32Y826D02*
Y1106D01*
Y826D02*
X233D01*
Y1106D01*
X32D02*
X233D01*
X32Y1172D02*
Y1452D01*
Y1172D02*
X233D01*
Y1452D01*
X32D02*
X233D01*
X32Y1515D02*
Y1795D01*
Y1515D02*
X233D01*
Y1795D01*
X32D02*
X233D01*
X29Y694D02*
X309D01*
X29Y493D02*
Y694D01*
Y493D02*
X309D01*
Y694D01*
D88*
X1444Y743D02*
G03*
X1444Y719I0J-12D01*
G01*
X726Y763D02*
G03*
X726Y739I0J-12D01*
G01*
D89*
X386Y524D02*
X425D01*
X386Y453D02*
X425D01*
Y524D01*
X386Y453D02*
Y524D01*
X453D02*
X492D01*
X453Y453D02*
X492D01*
Y524D01*
X453Y453D02*
Y524D01*
X320Y460D02*
X357D01*
X320Y391D02*
X357D01*
Y460D01*
X320Y391D02*
Y460D01*
X627Y316D02*
X664D01*
X627Y385D02*
X664D01*
X627Y316D02*
Y385D01*
X664Y316D02*
Y385D01*
X894Y535D02*
X933D01*
X894Y465D02*
X933D01*
Y535D01*
X894Y465D02*
Y535D01*
X831D02*
X870D01*
X831Y465D02*
X870D01*
Y535D01*
X831Y465D02*
Y535D01*
X753Y468D02*
X790D01*
X753Y399D02*
X790D01*
Y468D01*
X753Y399D02*
Y468D01*
X1025Y316D02*
X1062D01*
X1025Y385D02*
X1062D01*
X1025Y316D02*
Y385D01*
X1062Y316D02*
Y385D01*
X1240Y531D02*
X1280D01*
X1240Y461D02*
X1280D01*
Y531D01*
X1240Y461D02*
Y531D01*
X1173Y524D02*
X1213D01*
X1173Y453D02*
X1213D01*
Y524D01*
X1173Y453D02*
Y524D01*
X1446Y300D02*
X1483D01*
X1446Y369D02*
X1483D01*
X1446Y300D02*
Y369D01*
X1483Y300D02*
Y369D01*
X1139Y379D02*
Y416D01*
X1208Y379D02*
Y416D01*
X1139D02*
X1208D01*
X1139Y379D02*
X1208D01*
X426Y1375D02*
Y1510D01*
Y1375D02*
X676D01*
X426Y1510D02*
X676D01*
Y1375D02*
Y1510D01*
X1316Y1214D02*
Y1282D01*
X1354Y1214D02*
Y1282D01*
X1316Y1214D02*
X1354D01*
X1316Y1282D02*
X1354D01*
X1013Y954D02*
X1082D01*
X1013Y991D02*
X1082D01*
Y954D02*
Y991D01*
X1013Y954D02*
Y991D01*
X1261Y257D02*
Y326D01*
X1298Y257D02*
Y326D01*
X1261D02*
X1298D01*
X1261Y257D02*
X1298D01*
X1657Y220D02*
X1728D01*
X1657Y354D02*
X1728D01*
Y220D02*
Y354D01*
X1657Y220D02*
Y354D01*
X1740Y224D02*
X1811D01*
X1740Y358D02*
X1811D01*
Y224D02*
Y358D01*
X1740Y224D02*
Y358D01*
X693Y209D02*
X764D01*
X693Y343D02*
X764D01*
X693Y209D02*
Y343D01*
X764Y209D02*
Y343D01*
X1740Y220D02*
X1811D01*
X1740Y354D02*
X1811D01*
X1740Y220D02*
Y354D01*
X1811Y220D02*
Y354D01*
X1575Y220D02*
X1646D01*
X1575Y354D02*
X1646D01*
X1575Y220D02*
Y354D01*
X1646Y220D02*
Y354D01*
X1657Y220D02*
X1728D01*
X1657Y354D02*
X1728D01*
X1657Y220D02*
Y354D01*
X1728Y220D02*
Y354D01*
X299Y217D02*
X370D01*
X299Y350D02*
X370D01*
Y217D02*
Y350D01*
X299Y217D02*
Y350D01*
X1075Y213D02*
X1146D01*
X1075Y346D02*
X1146D01*
X1075Y213D02*
Y346D01*
X1146Y213D02*
Y346D01*
X382Y217D02*
X453D01*
X382Y350D02*
X453D01*
Y217D02*
Y350D01*
X382Y217D02*
Y350D01*
X650Y213D02*
X720D01*
X650Y346D02*
X720D01*
Y213D02*
Y346D01*
X650Y213D02*
Y346D01*
X732Y209D02*
X803D01*
X732Y343D02*
X803D01*
Y209D02*
Y343D01*
X732Y209D02*
Y343D01*
X1366Y201D02*
X1437D01*
X1366Y335D02*
X1437D01*
Y201D02*
Y335D01*
X1366Y201D02*
Y335D01*
X1492Y209D02*
X1563D01*
X1492Y343D02*
X1563D01*
Y209D02*
Y343D01*
X1492Y209D02*
Y343D01*
X1154Y213D02*
X1224D01*
X1154Y346D02*
X1224D01*
Y213D02*
Y346D01*
X1154Y213D02*
Y346D01*
X1071Y213D02*
X1142D01*
X1071Y346D02*
X1142D01*
Y213D02*
Y346D01*
X1071Y213D02*
Y346D01*
X1565Y576D02*
Y645D01*
X1527Y576D02*
Y645D01*
X1565D01*
X1527Y576D02*
X1565D01*
X1785Y568D02*
Y637D01*
X1747Y568D02*
Y637D01*
X1785D01*
X1747Y568D02*
X1785D01*
X465Y249D02*
Y318D01*
X503Y249D02*
Y318D01*
X465D02*
X503D01*
X465Y249D02*
X503D01*
X1552Y1356D02*
X1621D01*
X1552Y1318D02*
X1621D01*
X1552D02*
Y1356D01*
X1621Y1318D02*
Y1356D01*
X1560Y1565D02*
X1629D01*
X1560Y1527D02*
X1629D01*
X1560D02*
Y1565D01*
X1629Y1527D02*
Y1565D01*
X516Y323D02*
X587D01*
X516Y189D02*
X587D01*
X516D02*
Y323D01*
X587Y189D02*
Y323D01*
X867Y263D02*
Y332D01*
X905Y263D02*
Y332D01*
X867D02*
X905D01*
X867Y263D02*
X905D01*
X1367Y548D02*
X1436D01*
X1367Y586D02*
X1436D01*
Y548D02*
Y586D01*
X1367Y548D02*
Y586D01*
X1363Y920D02*
X1432D01*
X1363Y883D02*
X1432D01*
X1363D02*
Y920D01*
X1432Y883D02*
Y920D01*
X917Y335D02*
X988D01*
X917Y201D02*
X988D01*
X917D02*
Y335D01*
X988Y201D02*
Y335D01*
X1206Y1436D02*
X1275D01*
X1206Y1398D02*
X1275D01*
X1206D02*
Y1436D01*
X1275Y1398D02*
Y1436D01*
X647Y568D02*
X716D01*
X647Y606D02*
X716D01*
Y568D02*
Y606D01*
X647Y568D02*
Y606D01*
X647Y932D02*
X716D01*
X647Y894D02*
X716D01*
X647D02*
Y932D01*
X716Y894D02*
Y932D01*
X1316Y257D02*
Y326D01*
X1354Y257D02*
Y326D01*
X1316D02*
X1354D01*
X1316Y257D02*
X1354D01*
X918Y991D02*
X987D01*
X918Y954D02*
X987D01*
X918D02*
Y991D01*
X987Y954D02*
Y991D01*
X1575Y217D02*
X1646D01*
X1575Y350D02*
X1646D01*
Y217D02*
Y350D01*
X1575Y217D02*
Y350D01*
M02*
