G04*
G04 #@! TF.GenerationSoftware,Altium Limited,Altium Designer,21.9.2 (33)*
G04*
G04 Layer_Color=32896*
%FSLAX23Y23*%
%MOIN*%
G70*
G04*
G04 #@! TF.SameCoordinates,057B0E17-ACE6-4E06-8752-021C102DDC49*
G04*
G04*
G04 #@! TF.FilePolarity,Positive*
G04*
G01*
G75*
%ADD10C,0.008*%
%ADD12C,0.005*%
D10*
X254Y504D02*
G03*
X254Y504I-4J0D01*
G01*
X1724Y266D02*
Y309D01*
X1661Y266D02*
Y309D01*
X1807Y270D02*
Y313D01*
X1744Y270D02*
Y313D01*
X366Y262D02*
Y305D01*
X303Y262D02*
Y305D01*
X449Y262D02*
Y305D01*
X386Y262D02*
Y305D01*
X717Y258D02*
Y301D01*
X654Y258D02*
Y301D01*
X799Y254D02*
Y297D01*
X736Y254D02*
Y297D01*
X1433Y246D02*
Y289D01*
X1370Y246D02*
Y289D01*
X1559Y254D02*
Y297D01*
X1496Y254D02*
Y297D01*
X1220Y258D02*
Y301D01*
X1157Y258D02*
Y301D01*
X1138Y258D02*
Y301D01*
X1075Y258D02*
Y301D01*
X520Y234D02*
Y278D01*
X583Y234D02*
Y278D01*
X921Y246D02*
Y289D01*
X984Y246D02*
Y289D01*
X1642Y262D02*
Y305D01*
X1579Y262D02*
Y305D01*
X87Y223D02*
Y249D01*
X93Y256D01*
X106D01*
X113Y249D01*
Y223D01*
X106Y217D01*
X93D01*
X100Y230D02*
X87Y217D01*
X93D02*
X87Y223D01*
X73Y217D02*
X60D01*
X67D01*
Y256D01*
X73Y249D01*
X1293Y371D02*
X1299Y365D01*
Y352D01*
X1293Y345D01*
X1266D01*
X1260Y352D01*
Y365D01*
X1266Y371D01*
X1293Y385D02*
X1299Y391D01*
Y404D01*
X1293Y411D01*
X1286D01*
X1280Y404D01*
Y398D01*
Y404D01*
X1273Y411D01*
X1266D01*
X1260Y404D01*
Y391D01*
X1266Y385D01*
X1260Y450D02*
Y424D01*
X1286Y450D01*
X1293D01*
X1299Y444D01*
Y430D01*
X1293Y424D01*
X1706Y413D02*
X1713Y407D01*
Y394D01*
X1706Y387D01*
X1680D01*
X1673Y394D01*
Y407D01*
X1680Y413D01*
X1706Y427D02*
X1713Y433D01*
Y446D01*
X1706Y453D01*
X1699D01*
X1693Y446D01*
Y440D01*
Y446D01*
X1686Y453D01*
X1680D01*
X1673Y446D01*
Y433D01*
X1680Y427D01*
X1673Y466D02*
Y479D01*
Y472D01*
X1713D01*
X1706Y466D01*
X1789Y411D02*
X1795Y404D01*
Y391D01*
X1789Y385D01*
X1762D01*
X1756Y391D01*
Y404D01*
X1762Y411D01*
X1789Y424D02*
X1795Y430D01*
Y444D01*
X1789Y450D01*
X1782D01*
X1776Y444D01*
Y437D01*
Y444D01*
X1769Y450D01*
X1762D01*
X1756Y444D01*
Y430D01*
X1762Y424D01*
X1789Y463D02*
X1795Y470D01*
Y483D01*
X1789Y489D01*
X1762D01*
X1756Y483D01*
Y470D01*
X1762Y463D01*
X1789D01*
X344Y115D02*
X350Y109D01*
Y96D01*
X344Y89D01*
X318D01*
X311Y96D01*
Y109D01*
X318Y115D01*
X311Y155D02*
Y129D01*
X337Y155D01*
X344D01*
X350Y148D01*
Y135D01*
X344Y129D01*
X350Y194D02*
Y168D01*
X331D01*
X337Y181D01*
Y188D01*
X331Y194D01*
X318D01*
X311Y188D01*
Y175D01*
X318Y168D01*
X446Y395D02*
X453Y388D01*
Y375D01*
X446Y369D01*
X420D01*
X413Y375D01*
Y388D01*
X420Y395D01*
X413Y434D02*
Y408D01*
X440Y434D01*
X446D01*
X453Y428D01*
Y415D01*
X446Y408D01*
Y447D02*
X453Y454D01*
Y467D01*
X446Y474D01*
X440D01*
X433Y467D01*
Y461D01*
Y467D01*
X427Y474D01*
X420D01*
X413Y467D01*
Y454D01*
X420Y447D01*
X706Y112D02*
X713Y105D01*
Y92D01*
X706Y85D01*
X680D01*
X673Y92D01*
Y105D01*
X680Y112D01*
X673Y151D02*
Y125D01*
X699Y151D01*
X706D01*
X713Y144D01*
Y131D01*
X706Y125D01*
X673Y190D02*
Y164D01*
X699Y190D01*
X706D01*
X713Y184D01*
Y171D01*
X706Y164D01*
X797Y390D02*
X803Y383D01*
Y370D01*
X797Y364D01*
X770D01*
X764Y370D01*
Y383D01*
X770Y390D01*
X764Y429D02*
Y403D01*
X790Y429D01*
X797D01*
X803Y423D01*
Y409D01*
X797Y403D01*
X764Y442D02*
Y455D01*
Y449D01*
X803D01*
X797Y442D01*
X1419Y387D02*
X1425Y381D01*
Y367D01*
X1419Y361D01*
X1392D01*
X1386Y367D01*
Y381D01*
X1392Y387D01*
X1386Y427D02*
Y400D01*
X1412Y427D01*
X1419D01*
X1425Y420D01*
Y407D01*
X1419Y400D01*
Y440D02*
X1425Y446D01*
Y459D01*
X1419Y466D01*
X1392D01*
X1386Y459D01*
Y446D01*
X1392Y440D01*
X1419D01*
X1541Y402D02*
X1547Y396D01*
Y383D01*
X1541Y376D01*
X1514D01*
X1508Y383D01*
Y396D01*
X1514Y402D01*
X1508Y415D02*
Y428D01*
Y422D01*
X1547D01*
X1541Y415D01*
X1514Y448D02*
X1508Y455D01*
Y468D01*
X1514Y474D01*
X1541D01*
X1547Y468D01*
Y455D01*
X1541Y448D01*
X1534D01*
X1528Y455D01*
Y474D01*
X1206Y119D02*
X1213Y112D01*
Y99D01*
X1206Y93D01*
X1180D01*
X1173Y99D01*
Y112D01*
X1180Y119D01*
X1173Y132D02*
Y145D01*
Y138D01*
X1213D01*
X1206Y132D01*
Y165D02*
X1213Y171D01*
Y184D01*
X1206Y191D01*
X1199D01*
X1193Y184D01*
X1186Y191D01*
X1180D01*
X1173Y184D01*
Y171D01*
X1180Y165D01*
X1186D01*
X1193Y171D01*
X1199Y165D01*
X1206D01*
X1193Y171D02*
Y184D01*
X1115Y394D02*
X1122Y388D01*
Y375D01*
X1115Y368D01*
X1089D01*
X1083Y375D01*
Y388D01*
X1089Y394D01*
X1083Y407D02*
Y421D01*
Y414D01*
X1122D01*
X1115Y407D01*
X1122Y440D02*
Y467D01*
X1115D01*
X1089Y440D01*
X1083D01*
X497Y162D02*
X504Y156D01*
Y142D01*
X497Y136D01*
X471D01*
X465Y142D01*
Y156D01*
X471Y162D01*
X465Y175D02*
Y188D01*
Y182D01*
X504D01*
X497Y175D01*
X465Y228D02*
X504D01*
X484Y208D01*
Y234D01*
X568Y373D02*
X575Y367D01*
Y354D01*
X568Y347D01*
X542D01*
X535Y354D01*
Y367D01*
X542Y373D01*
X535Y386D02*
Y400D01*
Y393D01*
X575D01*
X568Y386D01*
X535Y419D02*
Y432D01*
Y426D01*
X575D01*
X568Y419D01*
X899Y174D02*
X906Y167D01*
Y154D01*
X899Y148D01*
X873D01*
X866Y154D01*
Y167D01*
X873Y174D01*
X866Y187D02*
Y200D01*
Y194D01*
X906D01*
X899Y187D01*
Y220D02*
X906Y226D01*
Y239D01*
X899Y246D01*
X873D01*
X866Y239D01*
Y226D01*
X873Y220D01*
X899D01*
X970Y391D02*
X976Y385D01*
Y371D01*
X970Y365D01*
X944D01*
X937Y371D01*
Y385D01*
X944Y391D01*
X976Y404D02*
Y430D01*
X970D01*
X944Y404D01*
X937D01*
X1348Y202D02*
X1354Y196D01*
Y182D01*
X1348Y176D01*
X1322D01*
X1315Y182D01*
Y196D01*
X1322Y202D01*
X1348Y215D02*
X1354Y222D01*
Y235D01*
X1348Y241D01*
X1341D01*
X1335Y235D01*
Y228D01*
Y235D01*
X1328Y241D01*
X1322D01*
X1315Y235D01*
Y222D01*
X1322Y215D01*
X1627Y409D02*
X1634Y403D01*
Y390D01*
X1627Y383D01*
X1601D01*
X1594Y390D01*
Y403D01*
X1601Y409D01*
X1594Y423D02*
Y436D01*
Y429D01*
X1634D01*
X1627Y423D01*
D12*
X62Y279D02*
X218D01*
X62Y493D02*
X218D01*
M02*
