G04*
G04 #@! TF.GenerationSoftware,Altium Limited,Altium Designer,21.9.2 (33)*
G04*
G04 Layer_Color=2752767*
%FSLAX23Y23*%
%MOIN*%
G70*
G04*
G04 #@! TF.SameCoordinates,057B0E17-ACE6-4E06-8752-021C102DDC49*
G04*
G04*
G04 #@! TF.FilePolarity,Positive*
G04*
G01*
G75*
%ADD91C,0.002*%
%ADD92C,0.003*%
D91*
X75Y1033D02*
Y1049D01*
X91D01*
Y1033D01*
X75D01*
X175Y983D02*
Y999D01*
X191D01*
Y983D01*
X175D01*
X75Y933D02*
Y949D01*
X91D01*
Y933D01*
X75D01*
X175Y883D02*
Y899D01*
X191D01*
Y883D01*
X175D01*
X75Y1379D02*
Y1395D01*
X91D01*
Y1379D01*
X75D01*
X175Y1329D02*
Y1345D01*
X191D01*
Y1329D01*
X175D01*
X75Y1279D02*
Y1295D01*
X91D01*
Y1279D01*
X75D01*
X175Y1229D02*
Y1245D01*
X191D01*
Y1229D01*
X175D01*
X75Y1722D02*
Y1738D01*
X91D01*
Y1722D01*
X75D01*
X175Y1672D02*
Y1688D01*
X191D01*
Y1672D01*
X175D01*
X75Y1622D02*
Y1638D01*
X91D01*
Y1622D01*
X75D01*
X175Y1572D02*
Y1588D01*
X191D01*
Y1572D01*
X175D01*
X236Y635D02*
Y651D01*
X252D01*
Y635D01*
X236D01*
X186Y535D02*
Y551D01*
X202D01*
Y535D01*
X186D01*
X136Y635D02*
Y651D01*
X152D01*
Y635D01*
X136D01*
X86Y535D02*
Y551D01*
X102D01*
Y535D01*
X86D01*
X1776Y1768D02*
X1768Y1784D01*
X1784D01*
X1776Y1768D01*
Y1508D02*
X1768Y1524D01*
X1784D01*
X1776Y1508D01*
Y1768D02*
X1780Y1772D01*
X1784D01*
X1780Y1776D01*
X1784Y1780D01*
X1780D01*
X1776Y1784D01*
X1772Y1780D01*
X1768D01*
X1772Y1776D01*
X1768Y1772D01*
X1772D01*
X1776Y1768D01*
Y1508D02*
X1780Y1512D01*
X1784D01*
X1780Y1516D01*
X1784Y1520D01*
X1780D01*
X1776Y1524D01*
X1772Y1520D01*
X1768D01*
X1772Y1516D01*
X1768Y1512D01*
X1772D01*
X1776Y1508D01*
X1701Y90D02*
X1705Y98D01*
X1701Y106D01*
X1709Y102D01*
X1717Y106D01*
X1713Y98D01*
X1717Y90D01*
X1709Y94D01*
X1701Y90D01*
X401Y1728D02*
X405Y1736D01*
X401Y1744D01*
X409Y1740D01*
X417Y1744D01*
X413Y1736D01*
X417Y1728D01*
X409Y1732D01*
X401Y1728D01*
X1069Y1435D02*
Y1431D01*
X1077D01*
Y1435D01*
X1081D01*
Y1443D01*
X1077D01*
Y1447D01*
X1069D01*
Y1443D01*
X1065D01*
Y1435D01*
X1069D01*
X1012Y1440D02*
Y1436D01*
X1020D01*
Y1440D01*
X1024D01*
Y1448D01*
X1020D01*
Y1452D01*
X1012D01*
Y1448D01*
X1008D01*
Y1440D01*
X1012D01*
X1075Y1508D02*
Y1504D01*
X1083D01*
Y1508D01*
X1087D01*
Y1516D01*
X1083D01*
Y1520D01*
X1075D01*
Y1516D01*
X1071D01*
Y1508D01*
X1075D01*
X643Y1514D02*
X647D01*
X651Y1518D01*
X655Y1514D01*
X659D01*
Y1518D01*
X655Y1522D01*
X659Y1526D01*
Y1530D01*
X655D01*
X651Y1526D01*
X647Y1530D01*
X643D01*
Y1526D01*
X647Y1522D01*
X643Y1518D01*
Y1514D01*
X443D02*
X447D01*
X451Y1518D01*
X455Y1514D01*
X459D01*
Y1518D01*
X455Y1522D01*
X459Y1526D01*
Y1530D01*
X455D01*
X451Y1526D01*
X447Y1530D01*
X443D01*
Y1526D01*
X447Y1522D01*
X443Y1518D01*
Y1514D01*
X593D02*
X597D01*
X601Y1518D01*
X605Y1514D01*
X609D01*
Y1518D01*
X605Y1522D01*
X609Y1526D01*
Y1530D01*
X605D01*
X601Y1526D01*
X597Y1530D01*
X593D01*
Y1526D01*
X597Y1522D01*
X593Y1518D01*
Y1514D01*
X543D02*
X547D01*
X551Y1518D01*
X555Y1514D01*
X559D01*
Y1518D01*
X555Y1522D01*
X559Y1526D01*
Y1530D01*
X555D01*
X551Y1526D01*
X547Y1530D01*
X543D01*
Y1526D01*
X547Y1522D01*
X543Y1518D01*
Y1514D01*
X1130Y496D02*
X1134D01*
X1138Y500D01*
X1142Y496D01*
X1146D01*
Y500D01*
X1142Y504D01*
X1146Y508D01*
Y512D01*
X1142D01*
X1138Y508D01*
X1134Y512D01*
X1130D01*
Y508D01*
X1134Y504D01*
X1130Y500D01*
Y496D01*
X716D02*
X720D01*
X724Y500D01*
X728Y496D01*
X732D01*
Y500D01*
X728Y504D01*
X732Y508D01*
Y512D01*
X728D01*
X724Y508D01*
X720Y512D01*
X716D01*
Y508D01*
X720Y504D01*
X716Y500D01*
Y496D01*
X531D02*
X535D01*
X539Y500D01*
X543Y496D01*
X547D01*
Y500D01*
X543Y504D01*
X547Y508D01*
Y512D01*
X543D01*
X539Y508D01*
X535Y512D01*
X531D01*
Y508D01*
X535Y504D01*
X531Y500D01*
Y496D01*
X466Y508D02*
X470D01*
X474Y512D01*
X478Y508D01*
X482D01*
Y512D01*
X478Y516D01*
X482Y520D01*
Y524D01*
X478D01*
X474Y520D01*
X470Y524D01*
X466D01*
Y520D01*
X470Y516D01*
X466Y512D01*
Y508D01*
X1083Y524D02*
Y520D01*
X1091D01*
Y524D01*
X1095D01*
Y532D01*
X1091D01*
Y536D01*
X1083D01*
Y532D01*
X1079D01*
Y524D01*
X1083D01*
X1571Y1678D02*
X1575D01*
X1579Y1682D01*
X1583Y1678D01*
X1587D01*
Y1682D01*
X1583Y1686D01*
X1587Y1690D01*
Y1694D01*
X1583D01*
X1579Y1690D01*
X1575Y1694D01*
X1571D01*
Y1690D01*
X1575Y1686D01*
X1571Y1682D01*
Y1678D01*
X1275Y264D02*
X1279D01*
X1283Y268D01*
X1287Y264D01*
X1291D01*
Y268D01*
X1287Y272D01*
X1291Y276D01*
Y280D01*
X1287D01*
X1283Y276D01*
X1279Y280D01*
X1275D01*
Y276D01*
X1279Y272D01*
X1275Y268D01*
Y264D01*
X1370Y559D02*
X1374D01*
X1378Y563D01*
X1382Y559D01*
X1386D01*
Y563D01*
X1382Y567D01*
X1386Y571D01*
Y575D01*
X1382D01*
X1378Y571D01*
X1374Y575D01*
X1370D01*
Y571D01*
X1374Y567D01*
X1370Y563D01*
Y559D01*
X1422Y564D02*
Y560D01*
X1430D01*
Y564D01*
X1434D01*
Y572D01*
X1430D01*
Y576D01*
X1422D01*
Y572D01*
X1418D01*
Y564D01*
X1422D01*
X1542Y581D02*
Y577D01*
X1550D01*
Y581D01*
X1554D01*
Y589D01*
X1550D01*
Y593D01*
X1542D01*
Y589D01*
X1538D01*
Y581D01*
X1542D01*
X1279Y315D02*
X1283D01*
X1287Y319D01*
X1291Y315D01*
X1295D01*
Y319D01*
X1291Y323D01*
X1295Y327D01*
Y331D01*
X1291D01*
X1287Y327D01*
X1283Y331D01*
X1279D01*
Y327D01*
X1283Y323D01*
X1279Y319D01*
Y315D01*
X1323D02*
X1327D01*
X1331Y319D01*
X1335Y315D01*
X1339D01*
Y319D01*
X1335Y323D01*
X1339Y327D01*
Y331D01*
X1335D01*
X1331Y327D01*
X1327Y331D01*
X1323D01*
Y327D01*
X1327Y323D01*
X1323Y319D01*
Y315D01*
X1374D02*
X1378D01*
X1382Y319D01*
X1386Y315D01*
X1390D01*
Y319D01*
X1386Y323D01*
X1390Y327D01*
Y331D01*
X1386D01*
X1382Y327D01*
X1378Y331D01*
X1374D01*
Y327D01*
X1378Y323D01*
X1374Y319D01*
Y315D01*
X1067Y846D02*
X1071D01*
X1075Y850D01*
X1079Y846D01*
X1083D01*
Y850D01*
X1079Y854D01*
X1083Y858D01*
Y862D01*
X1079D01*
X1075Y858D01*
X1071Y862D01*
X1067D01*
Y858D01*
X1071Y854D01*
X1067Y850D01*
Y846D01*
X1066Y616D02*
X1070D01*
X1074Y620D01*
X1078Y616D01*
X1082D01*
Y620D01*
X1078Y624D01*
X1082Y628D01*
Y632D01*
X1078D01*
X1074Y628D01*
X1070Y632D01*
X1066D01*
Y628D01*
X1070Y624D01*
X1066Y620D01*
Y616D01*
X930Y1079D02*
X934D01*
X938Y1083D01*
X942Y1079D01*
X946D01*
Y1083D01*
X942Y1087D01*
X946Y1091D01*
Y1095D01*
X942D01*
X938Y1091D01*
X934Y1095D01*
X930D01*
Y1091D01*
X934Y1087D01*
X930Y1083D01*
Y1079D01*
X1327Y1266D02*
X1331D01*
X1335Y1270D01*
X1339Y1266D01*
X1343D01*
Y1270D01*
X1339Y1274D01*
X1343Y1278D01*
Y1282D01*
X1339D01*
X1335Y1278D01*
X1331Y1282D01*
X1327D01*
Y1278D01*
X1331Y1274D01*
X1327Y1270D01*
Y1266D01*
X1267Y1236D02*
X1271D01*
X1275Y1240D01*
X1279Y1236D01*
X1283D01*
Y1240D01*
X1279Y1244D01*
X1283Y1248D01*
Y1252D01*
X1279D01*
X1275Y1248D01*
X1271Y1252D01*
X1267D01*
Y1248D01*
X1271Y1244D01*
X1267Y1240D01*
Y1236D01*
X1327Y1214D02*
X1331D01*
X1335Y1218D01*
X1339Y1214D01*
X1343D01*
Y1218D01*
X1339Y1222D01*
X1343Y1226D01*
Y1230D01*
X1339D01*
X1335Y1226D01*
X1331Y1230D01*
X1327D01*
Y1226D01*
X1331Y1222D01*
X1327Y1218D01*
Y1214D01*
X1014Y964D02*
X1018D01*
X1022Y968D01*
X1026Y964D01*
X1030D01*
Y968D01*
X1026Y972D01*
X1030Y976D01*
Y980D01*
X1026D01*
X1022Y976D01*
X1018Y980D01*
X1014D01*
Y976D01*
X1018Y972D01*
X1014Y968D01*
Y964D01*
X1662Y1689D02*
X1666D01*
X1670Y1693D01*
X1674Y1689D01*
X1678D01*
Y1693D01*
X1674Y1697D01*
X1678Y1701D01*
Y1705D01*
X1674D01*
X1670Y1701D01*
X1666Y1705D01*
X1662D01*
Y1701D01*
X1666Y1697D01*
X1662Y1693D01*
Y1689D01*
X1768Y1685D02*
X1772D01*
X1776Y1689D01*
X1780Y1685D01*
X1784D01*
Y1689D01*
X1780Y1693D01*
X1784Y1697D01*
Y1701D01*
X1780D01*
X1776Y1697D01*
X1772Y1701D01*
X1768D01*
Y1697D01*
X1772Y1693D01*
X1768Y1689D01*
Y1685D01*
Y1590D02*
X1772D01*
X1776Y1594D01*
X1780Y1590D01*
X1784D01*
Y1594D01*
X1780Y1598D01*
X1784Y1602D01*
Y1606D01*
X1780D01*
X1776Y1602D01*
X1772Y1606D01*
X1768D01*
Y1602D01*
X1772Y1598D01*
X1768Y1594D01*
Y1590D01*
X1602Y220D02*
X1606D01*
X1610Y224D01*
X1614Y220D01*
X1618D01*
Y224D01*
X1614Y228D01*
X1618Y232D01*
Y236D01*
X1614D01*
X1610Y232D01*
X1606Y236D01*
X1602D01*
Y232D01*
X1606Y228D01*
X1602Y224D01*
Y220D01*
Y338D02*
X1606D01*
X1610Y342D01*
X1614Y338D01*
X1618D01*
Y342D01*
X1614Y346D01*
X1618Y350D01*
Y354D01*
X1614D01*
X1610Y350D01*
X1606Y354D01*
X1602D01*
Y350D01*
X1606Y346D01*
X1602Y342D01*
Y338D01*
X685Y212D02*
X689D01*
X693Y216D01*
X697Y212D01*
X701D01*
Y216D01*
X697Y220D01*
X701Y224D01*
Y228D01*
X697D01*
X693Y224D01*
X689Y228D01*
X685D01*
Y224D01*
X689Y220D01*
X685Y216D01*
Y212D01*
X547D02*
X551D01*
X555Y216D01*
X559Y212D01*
X563D01*
Y216D01*
X559Y220D01*
X563Y224D01*
Y228D01*
X559D01*
X555Y224D01*
X551Y228D01*
X547D01*
Y224D01*
X551Y220D01*
X547Y216D01*
Y212D01*
X1386Y224D02*
X1390D01*
X1394Y228D01*
X1398Y224D01*
X1402D01*
Y228D01*
X1398Y232D01*
X1402Y236D01*
Y240D01*
X1398D01*
X1394Y236D01*
X1390Y240D01*
X1386D01*
Y236D01*
X1390Y232D01*
X1386Y228D01*
Y224D01*
X961D02*
X965D01*
X969Y228D01*
X973Y224D01*
X977D01*
Y228D01*
X973Y232D01*
X977Y236D01*
Y240D01*
X973D01*
X969Y236D01*
X965Y240D01*
X961D01*
Y236D01*
X965Y232D01*
X961Y228D01*
Y224D01*
X446Y224D02*
X450D01*
X454Y228D01*
X458Y224D01*
X462D01*
Y228D01*
X458Y232D01*
X462Y236D01*
Y240D01*
X458D01*
X454Y236D01*
X450Y240D01*
X446D01*
Y236D01*
X450Y232D01*
X446Y228D01*
Y224D01*
X142Y335D02*
Y331D01*
X150D01*
Y335D01*
X154D01*
Y343D01*
X150D01*
Y347D01*
X142D01*
Y343D01*
X138D01*
Y335D01*
X142D01*
X67Y370D02*
Y366D01*
X75D01*
Y370D01*
X79D01*
Y378D01*
X75D01*
Y382D01*
X67D01*
Y378D01*
X63D01*
Y370D01*
X67D01*
X142Y374D02*
Y370D01*
X150D01*
Y374D01*
X154D01*
Y382D01*
X150D01*
Y386D01*
X142D01*
Y382D01*
X138D01*
Y374D01*
X142D01*
X138Y405D02*
Y401D01*
X146D01*
Y405D01*
X150D01*
Y413D01*
X146D01*
Y417D01*
X138D01*
Y413D01*
X134D01*
Y405D01*
X138D01*
X67D02*
Y401D01*
X75D01*
Y405D01*
X79D01*
Y413D01*
X75D01*
Y417D01*
X67D01*
Y413D01*
X63D01*
Y405D01*
X67D01*
X102D02*
Y401D01*
X110D01*
Y405D01*
X114D01*
Y413D01*
X110D01*
Y417D01*
X102D01*
Y413D01*
X98D01*
Y405D01*
X102D01*
X323Y220D02*
X327D01*
X331Y224D01*
X335Y220D01*
X339D01*
Y224D01*
X335Y228D01*
X339Y232D01*
Y236D01*
X335D01*
X331Y232D01*
X327Y236D01*
X323D01*
Y232D01*
X327Y228D01*
X323Y224D01*
Y220D01*
X348Y636D02*
X352D01*
X356Y640D01*
X360Y636D01*
X364D01*
Y640D01*
X360Y644D01*
X364Y648D01*
Y652D01*
X360D01*
X356Y648D01*
X352Y652D01*
X348D01*
Y648D01*
X352Y644D01*
X348Y640D01*
Y636D01*
X1520Y252D02*
X1524D01*
X1528Y256D01*
X1532Y252D01*
X1536D01*
Y256D01*
X1532Y260D01*
X1536Y264D01*
Y268D01*
X1532D01*
X1528Y264D01*
X1524Y268D01*
X1520D01*
Y264D01*
X1524Y260D01*
X1520Y256D01*
Y252D01*
X1161Y212D02*
X1165D01*
X1169Y216D01*
X1173Y212D01*
X1177D01*
Y216D01*
X1173Y220D01*
X1177Y224D01*
Y228D01*
X1173D01*
X1169Y224D01*
X1165Y228D01*
X1161D01*
Y224D01*
X1165Y220D01*
X1161Y216D01*
Y212D01*
X720Y209D02*
X724D01*
X728Y213D01*
X732Y209D01*
X736D01*
Y213D01*
X732Y217D01*
X736Y221D01*
Y225D01*
X732D01*
X728Y221D01*
X724Y225D01*
X720D01*
Y221D01*
X724Y217D01*
X720Y213D01*
Y209D01*
X949Y315D02*
X953D01*
X957Y319D01*
X961Y315D01*
X965D01*
Y319D01*
X961Y323D01*
X965Y327D01*
Y331D01*
X961D01*
X957Y327D01*
X953Y331D01*
X949D01*
Y327D01*
X953Y323D01*
X949Y319D01*
Y315D01*
X907Y313D02*
X911D01*
X915Y317D01*
X919Y313D01*
X923D01*
Y317D01*
X919Y321D01*
X923Y325D01*
Y329D01*
X919D01*
X915Y325D01*
X911Y329D01*
X907D01*
Y325D01*
X911Y321D01*
X907Y317D01*
Y313D01*
X862Y315D02*
X866D01*
X870Y319D01*
X874Y315D01*
X878D01*
Y319D01*
X874Y323D01*
X878Y327D01*
Y331D01*
X874D01*
X870Y327D01*
X866Y331D01*
X862D01*
Y327D01*
X866Y323D01*
X862Y319D01*
Y315D01*
X720Y327D02*
X724D01*
X728Y331D01*
X732Y327D01*
X736D01*
Y331D01*
X732Y335D01*
X736Y339D01*
Y343D01*
X732D01*
X728Y339D01*
X724Y343D01*
X720D01*
Y339D01*
X724Y335D01*
X720Y331D01*
Y327D01*
X126Y63D02*
X130D01*
X134Y67D01*
X138Y63D01*
X142D01*
Y67D01*
X138Y71D01*
X142Y75D01*
Y79D01*
X138D01*
X134Y75D01*
X130Y79D01*
X126D01*
Y75D01*
X130Y71D01*
X126Y67D01*
Y63D01*
X90D02*
X94D01*
X98Y67D01*
X102Y63D01*
X106D01*
Y67D01*
X102Y71D01*
X106Y75D01*
Y79D01*
X102D01*
X98Y75D01*
X94Y79D01*
X90D01*
Y75D01*
X94Y71D01*
X90Y67D01*
Y63D01*
X47D02*
X51D01*
X55Y67D01*
X59Y63D01*
X63D01*
Y67D01*
X59Y71D01*
X63Y75D01*
Y79D01*
X59D01*
X55Y75D01*
X51Y79D01*
X47D01*
Y75D01*
X51Y71D01*
X47Y67D01*
Y63D01*
X122Y90D02*
X126D01*
X130Y94D01*
X134Y90D01*
X138D01*
Y94D01*
X134Y98D01*
X138Y102D01*
Y106D01*
X134D01*
X130Y102D01*
X126Y106D01*
X122D01*
Y102D01*
X126Y98D01*
X122Y94D01*
Y90D01*
X86D02*
X90D01*
X94Y94D01*
X98Y90D01*
X102D01*
Y94D01*
X98Y98D01*
X102Y102D01*
Y106D01*
X98D01*
X94Y102D01*
X90Y106D01*
X86D01*
Y102D01*
X90Y98D01*
X86Y94D01*
Y90D01*
X122Y122D02*
X126D01*
X130Y126D01*
X134Y122D01*
X138D01*
Y126D01*
X134Y130D01*
X138Y134D01*
Y138D01*
X134D01*
X130Y134D01*
X126Y138D01*
X122D01*
Y134D01*
X126Y130D01*
X122Y126D01*
Y122D01*
X79D02*
X83D01*
X87Y126D01*
X91Y122D01*
X95D01*
Y126D01*
X91Y130D01*
X95Y134D01*
Y138D01*
X91D01*
X87Y134D01*
X83Y138D01*
X79D01*
Y134D01*
X83Y130D01*
X79Y126D01*
Y122D01*
X122Y149D02*
X126D01*
X130Y153D01*
X134Y149D01*
X138D01*
Y153D01*
X134Y157D01*
X138Y161D01*
Y165D01*
X134D01*
X130Y161D01*
X126Y165D01*
X122D01*
Y161D01*
X126Y157D01*
X122Y153D01*
Y149D01*
X79D02*
X83D01*
X87Y153D01*
X91Y149D01*
X95D01*
Y153D01*
X91Y157D01*
X95Y161D01*
Y165D01*
X91D01*
X87Y161D01*
X83Y165D01*
X79D01*
Y161D01*
X83Y157D01*
X79Y153D01*
Y149D01*
X43D02*
X47D01*
X51Y153D01*
X55Y149D01*
X59D01*
Y153D01*
X55Y157D01*
X59Y161D01*
Y165D01*
X55D01*
X51Y161D01*
X47Y165D01*
X43D01*
Y161D01*
X47Y157D01*
X43Y153D01*
Y149D01*
X47Y90D02*
X51D01*
X55Y94D01*
X59Y90D01*
X63D01*
Y94D01*
X59Y98D01*
X63Y102D01*
Y106D01*
X59D01*
X55Y102D01*
X51Y106D01*
X47D01*
Y102D01*
X51Y98D01*
X47Y94D01*
Y90D01*
X705Y248D02*
X709D01*
X713Y252D01*
X717Y248D01*
X721D01*
Y252D01*
X717Y256D01*
X721Y260D01*
Y264D01*
X717D01*
X713Y260D01*
X709Y264D01*
X705D01*
Y260D01*
X709Y256D01*
X705Y252D01*
Y248D01*
X1098Y252D02*
X1102D01*
X1106Y256D01*
X1110Y252D01*
X1114D01*
Y256D01*
X1110Y260D01*
X1114Y264D01*
Y268D01*
X1110D01*
X1106Y264D01*
X1102Y268D01*
X1098D01*
Y264D01*
X1102Y260D01*
X1098Y256D01*
Y252D01*
X648Y579D02*
X652D01*
X656Y583D01*
X660Y579D01*
X664D01*
Y583D01*
X660Y587D01*
X664Y591D01*
Y595D01*
X660D01*
X656Y591D01*
X652Y595D01*
X648D01*
Y591D01*
X652Y587D01*
X648Y583D01*
Y579D01*
X1185Y508D02*
X1189D01*
X1193Y512D01*
X1197Y508D01*
X1201D01*
Y512D01*
X1197Y516D01*
X1201Y520D01*
Y524D01*
X1197D01*
X1193Y520D01*
X1189Y524D01*
X1185D01*
Y520D01*
X1189Y516D01*
X1185Y512D01*
Y508D01*
X906Y520D02*
X910D01*
X914Y524D01*
X918Y520D01*
X922D01*
Y524D01*
X918Y528D01*
X922Y532D01*
Y536D01*
X918D01*
X914Y532D01*
X910Y536D01*
X906D01*
Y532D01*
X910Y528D01*
X906Y524D01*
Y520D01*
X842D02*
X846D01*
X850Y524D01*
X854Y520D01*
X858D01*
Y524D01*
X854Y528D01*
X858Y532D01*
Y536D01*
X854D01*
X850Y532D01*
X846Y536D01*
X842D01*
Y532D01*
X846Y528D01*
X842Y524D01*
Y520D01*
X1252Y516D02*
X1256D01*
X1260Y520D01*
X1264Y516D01*
X1268D01*
Y520D01*
X1264Y524D01*
X1268Y528D01*
Y532D01*
X1264D01*
X1260Y528D01*
X1256Y532D01*
X1252D01*
Y528D01*
X1256Y524D01*
X1252Y520D01*
Y516D01*
X1758Y620D02*
X1762D01*
X1766Y624D01*
X1770Y620D01*
X1774D01*
Y624D01*
X1770Y628D01*
X1774Y632D01*
Y636D01*
X1770D01*
X1766Y632D01*
X1762Y636D01*
X1758D01*
Y632D01*
X1762Y628D01*
X1758Y624D01*
Y620D01*
X1538Y628D02*
X1542D01*
X1546Y632D01*
X1550Y628D01*
X1554D01*
Y632D01*
X1550Y636D01*
X1554Y640D01*
Y644D01*
X1550D01*
X1546Y640D01*
X1542Y644D01*
X1538D01*
Y640D01*
X1542Y636D01*
X1538Y632D01*
Y628D01*
X1267Y1299D02*
X1271D01*
X1275Y1303D01*
X1279Y1299D01*
X1283D01*
Y1303D01*
X1279Y1307D01*
X1283Y1311D01*
Y1315D01*
X1279D01*
X1275Y1311D01*
X1271Y1315D01*
X1267D01*
Y1311D01*
X1271Y1307D01*
X1267Y1303D01*
Y1299D01*
X1671Y1512D02*
X1675D01*
X1679Y1516D01*
X1683Y1512D01*
X1687D01*
Y1516D01*
X1683Y1520D01*
X1687Y1524D01*
Y1528D01*
X1683D01*
X1679Y1524D01*
X1675Y1528D01*
X1671D01*
Y1524D01*
X1675Y1520D01*
X1671Y1516D01*
Y1512D01*
X1671Y1764D02*
X1675D01*
X1679Y1768D01*
X1683Y1764D01*
X1687D01*
Y1768D01*
X1683Y1772D01*
X1687Y1776D01*
Y1780D01*
X1683D01*
X1679Y1776D01*
X1675Y1780D01*
X1671D01*
Y1776D01*
X1675Y1772D01*
X1671Y1768D01*
Y1764D01*
X1561Y1538D02*
X1565D01*
X1569Y1542D01*
X1573Y1538D01*
X1577D01*
Y1542D01*
X1573Y1546D01*
X1577Y1550D01*
Y1554D01*
X1573D01*
X1569Y1550D01*
X1565Y1554D01*
X1561D01*
Y1550D01*
X1565Y1546D01*
X1561Y1542D01*
Y1538D01*
X1207Y1409D02*
X1211D01*
X1215Y1413D01*
X1219Y1409D01*
X1223D01*
Y1413D01*
X1219Y1417D01*
X1223Y1421D01*
Y1425D01*
X1219D01*
X1215Y1421D01*
X1211Y1425D01*
X1207D01*
Y1421D01*
X1211Y1417D01*
X1207Y1413D01*
Y1409D01*
X1258D02*
X1262D01*
X1266Y1413D01*
X1270Y1409D01*
X1274D01*
Y1413D01*
X1270Y1417D01*
X1274Y1421D01*
Y1425D01*
X1270D01*
X1266Y1421D01*
X1262Y1425D01*
X1258D01*
Y1421D01*
X1262Y1417D01*
X1258Y1413D01*
Y1409D01*
X1553Y1329D02*
X1557D01*
X1561Y1333D01*
X1565Y1329D01*
X1569D01*
Y1333D01*
X1565Y1337D01*
X1569Y1341D01*
Y1345D01*
X1565D01*
X1561Y1341D01*
X1557Y1345D01*
X1553D01*
Y1341D01*
X1557Y1337D01*
X1553Y1333D01*
Y1329D01*
X1604D02*
X1608D01*
X1612Y1333D01*
X1616Y1329D01*
X1620D01*
Y1333D01*
X1616Y1337D01*
X1620Y1341D01*
Y1345D01*
X1616D01*
X1612Y1341D01*
X1608Y1345D01*
X1604D01*
Y1341D01*
X1608Y1337D01*
X1604Y1333D01*
Y1329D01*
X1415Y894D02*
X1419D01*
X1423Y898D01*
X1427Y894D01*
X1431D01*
Y898D01*
X1427Y902D01*
X1431Y906D01*
Y910D01*
X1427D01*
X1423Y906D01*
X1419Y910D01*
X1415D01*
Y906D01*
X1419Y902D01*
X1415Y898D01*
Y894D01*
X1364D02*
X1368D01*
X1372Y898D01*
X1376Y894D01*
X1380D01*
Y898D01*
X1376Y902D01*
X1380Y906D01*
Y910D01*
X1376D01*
X1372Y906D01*
X1368Y910D01*
X1364D01*
Y906D01*
X1368Y902D01*
X1364Y898D01*
Y894D01*
X970Y964D02*
X974D01*
X978Y968D01*
X982Y964D01*
X986D01*
Y968D01*
X982Y972D01*
X986Y976D01*
Y980D01*
X982D01*
X978Y976D01*
X974Y980D01*
X970D01*
Y976D01*
X974Y972D01*
X970Y968D01*
Y964D01*
X919D02*
X923D01*
X927Y968D01*
X931Y964D01*
X935D01*
Y968D01*
X931Y972D01*
X935Y976D01*
Y980D01*
X931D01*
X927Y976D01*
X923Y980D01*
X919D01*
Y976D01*
X923Y972D01*
X919Y968D01*
Y964D01*
X648Y905D02*
X652D01*
X656Y909D01*
X660Y905D01*
X664D01*
Y909D01*
X660Y913D01*
X664Y917D01*
Y921D01*
X660D01*
X656Y917D01*
X652Y921D01*
X648D01*
Y917D01*
X652Y913D01*
X648Y909D01*
Y905D01*
X699D02*
X703D01*
X707Y909D01*
X711Y905D01*
X715D01*
Y909D01*
X711Y913D01*
X715Y917D01*
Y921D01*
X711D01*
X707Y917D01*
X703Y921D01*
X699D01*
Y917D01*
X703Y913D01*
X699Y909D01*
Y905D01*
X346Y858D02*
X350D01*
X354Y862D01*
X358Y858D01*
X362D01*
Y862D01*
X358Y866D01*
X362Y870D01*
Y874D01*
X358D01*
X354Y870D01*
X350Y874D01*
X346D01*
Y870D01*
X350Y866D01*
X346Y862D01*
Y858D01*
X949Y260D02*
X953D01*
X957Y264D01*
X961Y260D01*
X965D01*
Y264D01*
X961Y268D01*
X965Y272D01*
Y276D01*
X961D01*
X957Y272D01*
X953Y276D01*
X949D01*
Y272D01*
X953Y268D01*
X949Y264D01*
Y260D01*
X894D02*
X898D01*
X902Y264D01*
X906Y260D01*
X910D01*
Y264D01*
X906Y268D01*
X910Y272D01*
Y276D01*
X906D01*
X902Y272D01*
X898Y276D01*
X894D01*
Y272D01*
X898Y268D01*
X894Y264D01*
Y260D01*
X858D02*
X862D01*
X866Y264D01*
X870Y260D01*
X874D01*
Y264D01*
X870Y268D01*
X874Y272D01*
Y276D01*
X870D01*
X866Y272D01*
X862Y276D01*
X858D01*
Y272D01*
X862Y268D01*
X858Y264D01*
Y260D01*
X498Y248D02*
X502D01*
X506Y252D01*
X510Y248D01*
X514D01*
Y252D01*
X510Y256D01*
X514Y260D01*
Y264D01*
X510D01*
X506Y260D01*
X502Y264D01*
X498D01*
Y260D01*
X502Y256D01*
X498Y252D01*
Y248D01*
X535D02*
X539D01*
X543Y252D01*
X547Y248D01*
X551D01*
Y252D01*
X547Y256D01*
X551Y260D01*
Y264D01*
X547D01*
X543Y260D01*
X539Y264D01*
X535D01*
Y260D01*
X539Y256D01*
X535Y252D01*
Y248D01*
X1760Y437D02*
X1764D01*
X1768Y441D01*
X1772Y437D01*
X1776D01*
Y441D01*
X1772Y445D01*
X1776Y449D01*
Y453D01*
X1772D01*
X1768Y449D01*
X1764Y453D01*
X1760D01*
Y449D01*
X1764Y445D01*
X1760Y441D01*
Y437D01*
X1386Y260D02*
X1390D01*
X1394Y264D01*
X1398Y260D01*
X1402D01*
Y264D01*
X1398Y268D01*
X1402Y272D01*
Y276D01*
X1398D01*
X1394Y272D01*
X1390Y276D01*
X1386D01*
Y272D01*
X1390Y268D01*
X1386Y264D01*
Y260D01*
X1335Y261D02*
X1339D01*
X1343Y265D01*
X1347Y261D01*
X1351D01*
Y265D01*
X1347Y269D01*
X1351Y273D01*
Y277D01*
X1347D01*
X1343Y273D01*
X1339Y277D01*
X1335D01*
Y273D01*
X1339Y269D01*
X1335Y265D01*
Y261D01*
X1102Y331D02*
X1106D01*
X1110Y335D01*
X1114Y331D01*
X1118D01*
Y335D01*
X1114Y339D01*
X1118Y343D01*
Y347D01*
X1114D01*
X1110Y343D01*
X1106Y347D01*
X1102D01*
Y343D01*
X1106Y339D01*
X1102Y335D01*
Y331D01*
Y212D02*
X1106D01*
X1110Y216D01*
X1114Y212D01*
X1118D01*
Y216D01*
X1114Y220D01*
X1118Y224D01*
Y228D01*
X1114D01*
X1110Y224D01*
X1106Y228D01*
X1102D01*
Y224D01*
X1106Y220D01*
X1102Y216D01*
Y212D01*
X1523Y209D02*
X1527D01*
X1531Y213D01*
X1535Y209D01*
X1539D01*
Y213D01*
X1535Y217D01*
X1539Y221D01*
Y225D01*
X1535D01*
X1531Y221D01*
X1527Y225D01*
X1523D01*
Y221D01*
X1527Y217D01*
X1523Y213D01*
Y209D01*
X1685Y346D02*
X1689D01*
X1693Y350D01*
X1697Y346D01*
X1701D01*
Y350D01*
X1697Y354D01*
X1701Y358D01*
Y362D01*
X1697D01*
X1693Y358D01*
X1689Y362D01*
X1685D01*
Y358D01*
X1689Y354D01*
X1685Y350D01*
Y346D01*
X1685Y220D02*
X1689D01*
X1693Y224D01*
X1697Y220D01*
X1701D01*
Y224D01*
X1697Y228D01*
X1701Y232D01*
Y236D01*
X1697D01*
X1693Y232D01*
X1689Y236D01*
X1685D01*
Y232D01*
X1689Y228D01*
X1685Y224D01*
Y220D01*
X1768D02*
X1772D01*
X1776Y224D01*
X1780Y220D01*
X1784D01*
Y224D01*
X1780Y228D01*
X1784Y232D01*
Y236D01*
X1780D01*
X1776Y232D01*
X1772Y236D01*
X1768D01*
Y232D01*
X1772Y228D01*
X1768Y224D01*
Y220D01*
Y338D02*
X1772D01*
X1776Y342D01*
X1780Y338D01*
X1784D01*
Y342D01*
X1780Y346D01*
X1784Y350D01*
Y354D01*
X1780D01*
X1776Y350D01*
X1772Y354D01*
X1768D01*
Y350D01*
X1772Y346D01*
X1768Y342D01*
Y338D01*
X1138Y1504D02*
Y1500D01*
X1146D01*
Y1504D01*
X1150D01*
Y1512D01*
X1146D01*
Y1516D01*
X1138D01*
Y1512D01*
X1134D01*
Y1504D01*
X1138D01*
X47Y118D02*
X51D01*
X55Y122D01*
X59Y118D01*
X63D01*
Y122D01*
X59Y126D01*
X63Y130D01*
Y134D01*
X59D01*
X55Y130D01*
X51Y134D01*
X47D01*
Y130D01*
X51Y126D01*
X47Y122D01*
Y118D01*
X398Y508D02*
X402D01*
X406Y512D01*
X410Y508D01*
X414D01*
Y512D01*
X410Y516D01*
X414Y520D01*
Y524D01*
X410D01*
X406Y520D01*
X402Y524D01*
X398D01*
Y520D01*
X402Y516D01*
X398Y512D01*
Y508D01*
X527Y300D02*
X531D01*
X535Y304D01*
X539Y300D01*
X543D01*
Y304D01*
X539Y308D01*
X543Y312D01*
Y316D01*
X539D01*
X535Y312D01*
X531Y316D01*
X527D01*
Y312D01*
X531Y308D01*
X527Y304D01*
Y300D01*
X551D02*
X555D01*
X559Y304D01*
X563Y300D01*
X567D01*
Y304D01*
X563Y308D01*
X567Y312D01*
Y316D01*
X563D01*
X559Y312D01*
X555Y316D01*
X551D01*
Y312D01*
X555Y308D01*
X551Y304D01*
Y300D01*
X504D02*
X508D01*
X512Y304D01*
X516Y300D01*
X520D01*
Y304D01*
X516Y308D01*
X520Y312D01*
Y316D01*
X516D01*
X512Y312D01*
X508Y316D01*
X504D01*
Y312D01*
X508Y308D01*
X504Y304D01*
Y300D01*
X480D02*
X484D01*
X488Y304D01*
X492Y300D01*
X496D01*
Y304D01*
X492Y308D01*
X496Y312D01*
Y316D01*
X492D01*
X488Y312D01*
X484Y316D01*
X480D01*
Y312D01*
X484Y308D01*
X480Y304D01*
Y300D01*
X453D02*
X457D01*
X461Y304D01*
X465Y300D01*
X469D01*
Y304D01*
X465Y308D01*
X469Y312D01*
Y316D01*
X465D01*
X461Y312D01*
X457Y316D01*
X453D01*
Y312D01*
X457Y308D01*
X453Y304D01*
Y300D01*
X772Y535D02*
Y531D01*
X780D01*
Y535D01*
X784D01*
Y543D01*
X780D01*
Y547D01*
X772D01*
Y543D01*
X768D01*
Y535D01*
X772D01*
X701Y555D02*
Y551D01*
X709D01*
Y555D01*
X713D01*
Y563D01*
X709D01*
Y567D01*
X701D01*
Y563D01*
X697D01*
Y555D01*
X701D01*
X338Y512D02*
X342D01*
X346Y516D01*
X350Y512D01*
X354D01*
Y516D01*
X350Y520D01*
X354Y524D01*
Y528D01*
X350D01*
X346Y524D01*
X342Y528D01*
X338D01*
Y524D01*
X342Y520D01*
X338Y516D01*
Y512D01*
X468Y251D02*
X472D01*
X476Y255D01*
X480Y251D01*
X484D01*
Y255D01*
X480Y259D01*
X484Y263D01*
Y267D01*
X480D01*
X476Y263D01*
X472Y267D01*
X468D01*
Y263D01*
X472Y259D01*
X468Y255D01*
Y251D01*
X67Y331D02*
Y327D01*
X75D01*
Y331D01*
X79D01*
Y339D01*
X75D01*
Y343D01*
X67D01*
Y339D01*
X63D01*
Y331D01*
X67D01*
X236Y236D02*
X240D01*
X244Y240D01*
X248Y236D01*
X252D01*
Y240D01*
X248Y244D01*
X252Y248D01*
Y252D01*
X248D01*
X244Y248D01*
X240Y252D01*
X236D01*
Y248D01*
X240Y244D01*
X236Y240D01*
Y236D01*
X106Y331D02*
Y327D01*
X114D01*
Y331D01*
X118D01*
Y339D01*
X114D01*
Y343D01*
X106D01*
Y339D01*
X102D01*
Y331D01*
X106D01*
X102Y366D02*
Y362D01*
X110D01*
Y366D01*
X114D01*
Y374D01*
X110D01*
Y378D01*
X102D01*
Y374D01*
X98D01*
Y366D01*
X102D01*
D92*
X120Y836D02*
G03*
X120Y836I-8J0D01*
G01*
Y1182D02*
G03*
X120Y1182I-8J0D01*
G01*
Y1525D02*
G03*
X120Y1525I-8J0D01*
G01*
X47Y614D02*
G03*
X47Y614I-8J0D01*
G01*
M02*
