G04*
G04 #@! TF.GenerationSoftware,Altium Limited,Altium Designer,21.9.2 (33)*
G04*
G04 Layer_Color=255*
%FSLAX23Y23*%
%MOIN*%
G70*
G04*
G04 #@! TF.SameCoordinates,057B0E17-ACE6-4E06-8752-021C102DDC49*
G04*
G04*
G04 #@! TF.FilePolarity,Positive*
G04*
G01*
G75*
%ADD34R,0.035X0.033*%
%ADD36R,0.071X0.045*%
%ADD68O,0.071X0.035*%
%ADD69C,0.020*%
%ADD79R,0.064X0.024*%
%ADD80R,0.180X0.189*%
%ADD81C,0.052*%
%ADD82C,0.060*%
D34*
X1280Y317D02*
D03*
Y266D02*
D03*
X484Y309D02*
D03*
Y258D02*
D03*
X886Y323D02*
D03*
Y272D02*
D03*
X1335Y317D02*
D03*
Y266D02*
D03*
D36*
X1693Y228D02*
D03*
Y346D02*
D03*
X1776Y232D02*
D03*
Y350D02*
D03*
X335Y224D02*
D03*
Y343D02*
D03*
X417Y224D02*
D03*
Y343D02*
D03*
X685Y220D02*
D03*
Y339D02*
D03*
X768Y217D02*
D03*
Y335D02*
D03*
X1402Y209D02*
D03*
Y327D02*
D03*
X1528Y217D02*
D03*
Y335D02*
D03*
X1189Y220D02*
D03*
Y339D02*
D03*
X1106Y220D02*
D03*
Y339D02*
D03*
X551Y315D02*
D03*
Y197D02*
D03*
X953Y327D02*
D03*
Y209D02*
D03*
X1610Y224D02*
D03*
Y343D02*
D03*
D68*
X1776Y1776D02*
D03*
Y1516D02*
D03*
D69*
Y1776D02*
D03*
Y1516D02*
D03*
D79*
X244Y311D02*
D03*
Y361D02*
D03*
Y411D02*
D03*
Y461D02*
D03*
D80*
X98Y386D02*
D03*
D81*
X83Y1041D02*
D03*
X183Y991D02*
D03*
X83Y941D02*
D03*
X183Y891D02*
D03*
X83Y1387D02*
D03*
X183Y1337D02*
D03*
X83Y1287D02*
D03*
X183Y1237D02*
D03*
X83Y1730D02*
D03*
X183Y1680D02*
D03*
X83Y1630D02*
D03*
X183Y1580D02*
D03*
X244Y643D02*
D03*
X194Y543D02*
D03*
X144Y643D02*
D03*
X94Y543D02*
D03*
D82*
X112Y836D02*
D03*
Y1182D02*
D03*
Y1525D02*
D03*
X39Y614D02*
D03*
M02*
