G04*
G04 #@! TF.GenerationSoftware,Altium Limited,Altium Designer,21.9.2 (33)*
G04*
G04 Layer_Color=32768*
%FSLAX23Y23*%
%MOIN*%
G70*
G04*
G04 #@! TF.SameCoordinates,057B0E17-ACE6-4E06-8752-021C102DDC49*
G04*
G04*
G04 #@! TF.FilePolarity,Positive*
G04*
G01*
G75*
%ADD11C,0.006*%
%ADD89C,0.004*%
%ADD90C,0.002*%
G36*
X336Y839D02*
Y897D01*
X727D01*
Y839D01*
X736D01*
Y662D01*
X727D01*
Y605D01*
X336D01*
Y662D01*
X326D01*
Y839D01*
X336D01*
D02*
G37*
G36*
X1054Y820D02*
Y877D01*
X1445D01*
Y820D01*
X1454D01*
Y643D01*
X1445D01*
Y585D01*
X1054D01*
Y643D01*
X1044D01*
Y820D01*
X1054D01*
D02*
G37*
G36*
X1238Y1066D02*
Y1044D01*
X1217D01*
Y991D01*
X957D01*
Y1044D01*
X935D01*
Y1066D01*
X882D01*
Y1326D01*
X935D01*
Y1347D01*
X957D01*
Y1401D01*
X1217D01*
Y1347D01*
X1238D01*
Y1326D01*
X1292D01*
Y1066D01*
X1238D01*
D02*
G37*
D11*
X1054Y820D02*
Y877D01*
X1044Y820D02*
X1054D01*
X1044Y643D02*
Y820D01*
Y643D02*
X1054D01*
Y585D02*
Y643D01*
Y585D02*
X1445D01*
Y643D01*
X1454D01*
Y820D01*
X1445D02*
X1454D01*
X1445D02*
Y877D01*
X1054D02*
X1445D01*
X336Y839D02*
Y897D01*
X326Y839D02*
X336D01*
X326Y662D02*
Y839D01*
Y662D02*
X336D01*
Y605D02*
Y662D01*
Y605D02*
X727D01*
Y662D01*
X736D01*
Y839D01*
X727D02*
X736D01*
X727D02*
Y897D01*
X336D02*
X727D01*
X1217Y1044D02*
X1238D01*
X1217Y991D02*
Y1044D01*
X957Y991D02*
X1217D01*
X957D02*
Y1044D01*
X935D02*
X957D01*
X1217Y1347D02*
X1238D01*
X1217D02*
Y1401D01*
X957D02*
X1217D01*
X957Y1347D02*
Y1401D01*
X935Y1347D02*
X957D01*
X935Y1044D02*
Y1066D01*
X882D02*
X935D01*
X882D02*
Y1326D01*
X935D01*
Y1347D01*
X1238Y1044D02*
Y1066D01*
X1292D01*
Y1326D01*
X1238D02*
X1292D01*
X1238D02*
Y1347D01*
X22Y796D02*
Y1116D01*
Y796D02*
X243D01*
Y1116D01*
X22D02*
X243D01*
X22Y1142D02*
Y1462D01*
Y1142D02*
X243D01*
Y1462D01*
X22D02*
X243D01*
X22Y1485D02*
Y1805D01*
Y1485D02*
X243D01*
Y1805D01*
X22D02*
X243D01*
X-1Y704D02*
X319D01*
X-1Y483D02*
Y704D01*
Y483D02*
X319D01*
Y704D01*
D89*
X406Y469D02*
Y508D01*
X386Y488D02*
X425D01*
X472Y469D02*
Y508D01*
X453Y488D02*
X492D01*
X339Y406D02*
Y444D01*
X320Y425D02*
X357D01*
X646Y332D02*
Y369D01*
X627Y350D02*
X664D01*
X913Y480D02*
Y520D01*
X894Y500D02*
X933D01*
X850Y480D02*
Y520D01*
X831Y500D02*
X870D01*
X772Y414D02*
Y452D01*
X753Y433D02*
X790D01*
X1043Y332D02*
Y369D01*
X1025Y350D02*
X1062D01*
X1260Y476D02*
Y516D01*
X1240Y496D02*
X1280D01*
X1193Y469D02*
Y508D01*
X1173Y488D02*
X1213D01*
X1465Y316D02*
Y353D01*
X1446Y335D02*
X1483D01*
X1155Y398D02*
X1192D01*
X1173Y379D02*
Y416D01*
X1316Y1248D02*
X1354D01*
X1335Y1229D02*
Y1267D01*
X1047Y954D02*
Y991D01*
X1028Y972D02*
X1066D01*
X1261Y291D02*
X1298D01*
X1280Y272D02*
Y310D01*
X1693Y268D02*
Y307D01*
X1673Y287D02*
X1713D01*
X1776Y272D02*
Y311D01*
X1756Y291D02*
X1795D01*
X728Y256D02*
Y295D01*
X709Y276D02*
X748D01*
X1776Y268D02*
Y307D01*
X1756Y287D02*
X1795D01*
X1610Y268D02*
Y307D01*
X1591Y287D02*
X1630D01*
X1693Y268D02*
Y307D01*
X1673Y287D02*
X1713D01*
X335Y264D02*
Y303D01*
X315Y283D02*
X354D01*
X1110Y260D02*
Y299D01*
X1091Y280D02*
X1130D01*
X417Y264D02*
Y303D01*
X398Y283D02*
X437D01*
X685Y260D02*
Y299D01*
X665Y280D02*
X705D01*
X768Y256D02*
Y295D01*
X748Y276D02*
X787D01*
X1402Y248D02*
Y287D01*
X1382Y268D02*
X1421D01*
X1528Y256D02*
Y295D01*
X1508Y276D02*
X1547D01*
X1189Y260D02*
Y299D01*
X1169Y280D02*
X1209D01*
X1106Y260D02*
Y299D01*
X1087Y280D02*
X1126D01*
X1527Y611D02*
X1565D01*
X1546Y592D02*
Y630D01*
X1747Y603D02*
X1785D01*
X1766Y584D02*
Y622D01*
X465Y283D02*
X503D01*
X484Y265D02*
Y302D01*
X1587Y1318D02*
Y1356D01*
X1568Y1337D02*
X1606D01*
X1594Y1527D02*
Y1565D01*
X1576Y1546D02*
X1613D01*
X551Y236D02*
Y276D01*
X531Y256D02*
X571D01*
X867Y297D02*
X905D01*
X886Y278D02*
Y316D01*
X1402Y548D02*
Y586D01*
X1383Y567D02*
X1420D01*
X1398Y883D02*
Y920D01*
X1379Y902D02*
X1417D01*
X953Y248D02*
Y287D01*
X933Y268D02*
X972D01*
X1240Y1398D02*
Y1436D01*
X1221Y1417D02*
X1259D01*
X681Y568D02*
Y606D01*
X662Y587D02*
X700D01*
X681Y894D02*
Y932D01*
X662Y913D02*
X700D01*
X1316Y291D02*
X1354D01*
X1335Y272D02*
Y310D01*
X953Y954D02*
Y991D01*
X934Y972D02*
X972D01*
X1610Y264D02*
Y303D01*
X1591Y283D02*
X1630D01*
D90*
X1743Y554D02*
Y691D01*
X1577Y554D02*
X1743D01*
X1577D02*
Y691D01*
X1743D01*
X1506Y1522D02*
X1644D01*
Y1357D02*
Y1522D01*
X1506Y1357D02*
X1644D01*
X1506D02*
Y1522D01*
X364Y555D02*
X447D01*
X364Y421D02*
X447D01*
Y555D01*
X364Y421D02*
Y555D01*
X431D02*
X514D01*
X431Y421D02*
X514D01*
Y555D01*
X431Y421D02*
Y555D01*
X315Y470D02*
X362D01*
X315Y380D02*
X362D01*
Y470D01*
X315Y380D02*
Y470D01*
X622Y305D02*
X669D01*
X622Y396D02*
X669D01*
X622Y305D02*
Y396D01*
X669Y305D02*
Y396D01*
X872Y567D02*
X955D01*
X872Y433D02*
X955D01*
Y567D01*
X872Y433D02*
Y567D01*
X809D02*
X892D01*
X809Y433D02*
X892D01*
Y567D01*
X809Y433D02*
Y567D01*
X748Y478D02*
X795D01*
X748Y388D02*
X795D01*
Y478D01*
X748Y388D02*
Y478D01*
X1020Y305D02*
X1067D01*
X1020Y396D02*
X1067D01*
X1020Y305D02*
Y396D01*
X1067Y305D02*
Y396D01*
X1219Y563D02*
X1301D01*
X1219Y429D02*
X1301D01*
Y563D01*
X1219Y429D02*
Y563D01*
X1152Y555D02*
X1234D01*
X1152Y421D02*
X1234D01*
Y555D01*
X1152Y421D02*
Y555D01*
X1441Y289D02*
X1488D01*
X1441Y380D02*
X1488D01*
X1441Y289D02*
Y380D01*
X1488Y289D02*
Y380D01*
X1128Y374D02*
Y421D01*
X1219Y374D02*
Y421D01*
X1128D02*
X1219D01*
X1128Y374D02*
X1219D01*
X-2Y281D02*
Y490D01*
Y281D02*
X286D01*
Y490D01*
X-2D02*
X286D01*
X1634Y1480D02*
Y1811D01*
X1894D01*
Y1480D02*
Y1811D01*
X1634Y1480D02*
X1894D01*
X416Y1587D02*
X686D01*
X416Y1297D02*
Y1587D01*
Y1297D02*
X686D01*
Y1587D01*
X1648Y1561D02*
Y1721D01*
X1510Y1561D02*
X1648D01*
X1510D02*
Y1721D01*
X1648D01*
X1311Y1203D02*
Y1293D01*
X1358Y1203D02*
Y1293D01*
X1311Y1203D02*
X1358D01*
X1311Y1293D02*
X1358D01*
X1002Y949D02*
X1093D01*
X1002Y996D02*
X1093D01*
Y949D02*
Y996D01*
X1002Y949D02*
Y996D01*
X1256Y246D02*
Y337D01*
X1303Y246D02*
Y337D01*
X1256D02*
X1303D01*
X1256Y246D02*
X1303D01*
X1648Y195D02*
X1738D01*
X1648Y380D02*
X1738D01*
Y195D02*
Y380D01*
X1648Y195D02*
Y380D01*
X1730Y199D02*
X1821D01*
X1730Y384D02*
X1821D01*
Y199D02*
Y384D01*
X1730Y199D02*
Y384D01*
X683Y183D02*
X774D01*
X683Y368D02*
X774D01*
X683Y183D02*
Y368D01*
X774Y183D02*
Y368D01*
X1730Y195D02*
X1821D01*
X1730Y380D02*
X1821D01*
X1730Y195D02*
Y380D01*
X1821Y195D02*
Y380D01*
X1565Y195D02*
X1656D01*
X1565Y380D02*
X1656D01*
X1565Y195D02*
Y380D01*
X1656Y195D02*
Y380D01*
X1648Y195D02*
X1738D01*
X1648Y380D02*
X1738D01*
X1648Y195D02*
Y380D01*
X1738Y195D02*
Y380D01*
X289Y191D02*
X380D01*
X289Y376D02*
X380D01*
Y191D02*
Y376D01*
X289Y191D02*
Y376D01*
X1065Y187D02*
X1156D01*
X1065Y372D02*
X1156D01*
X1065Y187D02*
Y372D01*
X1156Y187D02*
Y372D01*
X372Y191D02*
X463D01*
X372Y376D02*
X463D01*
Y191D02*
Y376D01*
X372Y191D02*
Y376D01*
X640Y187D02*
X730D01*
X640Y372D02*
X730D01*
Y187D02*
Y372D01*
X640Y187D02*
Y372D01*
X722Y183D02*
X813D01*
X722Y368D02*
X813D01*
Y183D02*
Y368D01*
X722Y183D02*
Y368D01*
X1356Y175D02*
X1447D01*
X1356Y360D02*
X1447D01*
Y175D02*
Y360D01*
X1356Y175D02*
Y360D01*
X1482Y183D02*
X1573D01*
X1482Y368D02*
X1573D01*
Y183D02*
Y368D01*
X1482Y183D02*
Y368D01*
X1144Y187D02*
X1234D01*
X1144Y372D02*
X1234D01*
Y187D02*
Y372D01*
X1144Y187D02*
Y372D01*
X1061Y187D02*
X1152D01*
X1061Y372D02*
X1152D01*
Y187D02*
Y372D01*
X1061Y187D02*
Y372D01*
X1569Y565D02*
Y656D01*
X1522Y565D02*
Y656D01*
X1569D01*
X1522Y565D02*
X1569D01*
X1790Y558D02*
Y648D01*
X1743Y558D02*
Y648D01*
X1790D01*
X1743Y558D02*
X1790D01*
X461Y238D02*
Y329D01*
X508Y238D02*
Y329D01*
X461D02*
X508D01*
X461Y238D02*
X508D01*
X1541Y1361D02*
X1632D01*
X1541Y1314D02*
X1632D01*
X1541D02*
Y1361D01*
X1632Y1314D02*
Y1361D01*
X1549Y1569D02*
X1640D01*
X1549Y1522D02*
X1640D01*
X1549D02*
Y1569D01*
X1640Y1522D02*
Y1569D01*
X506Y348D02*
X596D01*
X506Y163D02*
X596D01*
X506D02*
Y348D01*
X596Y163D02*
Y348D01*
X862Y252D02*
Y343D01*
X909Y252D02*
Y343D01*
X862D02*
X909D01*
X862Y252D02*
X909D01*
X1356Y543D02*
X1447D01*
X1356Y591D02*
X1447D01*
Y543D02*
Y591D01*
X1356Y543D02*
Y591D01*
X1352Y925D02*
X1443D01*
X1352Y878D02*
X1443D01*
X1352D02*
Y925D01*
X1443Y878D02*
Y925D01*
X907Y360D02*
X998D01*
X907Y175D02*
X998D01*
X907D02*
Y360D01*
X998Y175D02*
Y360D01*
X1195Y1441D02*
X1285D01*
X1195Y1394D02*
X1285D01*
X1195D02*
Y1441D01*
X1285Y1394D02*
Y1441D01*
X636Y563D02*
X726D01*
X636Y610D02*
X726D01*
Y563D02*
Y610D01*
X636Y563D02*
Y610D01*
X636Y937D02*
X726D01*
X636Y890D02*
X726D01*
X636D02*
Y937D01*
X726Y890D02*
Y937D01*
X1311Y246D02*
Y337D01*
X1358Y246D02*
Y337D01*
X1311D02*
X1358D01*
X1311Y246D02*
X1358D01*
X907Y996D02*
X998D01*
X907Y949D02*
X998D01*
X907D02*
Y996D01*
X998Y949D02*
Y996D01*
X1565Y191D02*
X1656D01*
X1565Y376D02*
X1656D01*
Y191D02*
Y376D01*
X1565Y191D02*
Y376D01*
M02*
