G04*
G04 #@! TF.GenerationSoftware,Altium Limited,Altium Designer,21.9.2 (33)*
G04*
G04 Layer_Physical_Order=1*
G04 Layer_Color=255*
%FSLAX23Y23*%
%MOIN*%
G70*
G04*
G04 #@! TF.SameCoordinates,057B0E17-ACE6-4E06-8752-021C102DDC49*
G04*
G04*
G04 #@! TF.FilePolarity,Positive*
G04*
G01*
G75*
%ADD10C,0.008*%
%ADD14C,0.010*%
%ADD15R,0.021X0.058*%
%ADD16R,0.020X0.053*%
%ADD17R,0.053X0.020*%
G04:AMPARAMS|DCode=18|XSize=56mil|YSize=23mil|CornerRadius=3mil|HoleSize=0mil|Usage=FLASHONLY|Rotation=180.000|XOffset=0mil|YOffset=0mil|HoleType=Round|Shape=RoundedRectangle|*
%AMROUNDEDRECTD18*
21,1,0.056,0.017,0,0,180.0*
21,1,0.050,0.023,0,0,180.0*
1,1,0.006,-0.025,0.009*
1,1,0.006,0.025,0.009*
1,1,0.006,0.025,-0.009*
1,1,0.006,-0.025,-0.009*
%
%ADD18ROUNDEDRECTD18*%
G04:AMPARAMS|DCode=19|XSize=56mil|YSize=23mil|CornerRadius=3mil|HoleSize=0mil|Usage=FLASHONLY|Rotation=270.000|XOffset=0mil|YOffset=0mil|HoleType=Round|Shape=RoundedRectangle|*
%AMROUNDEDRECTD19*
21,1,0.056,0.017,0,0,270.0*
21,1,0.050,0.023,0,0,270.0*
1,1,0.006,-0.009,-0.025*
1,1,0.006,-0.009,0.025*
1,1,0.006,0.009,0.025*
1,1,0.006,0.009,-0.025*
%
%ADD19ROUNDEDRECTD19*%
%ADD20R,0.062X0.016*%
%ADD21R,0.134X0.016*%
%ADD22R,0.024X0.010*%
%ADD23R,0.010X0.024*%
%ADD24R,0.079X0.012*%
%ADD25R,0.043X0.039*%
%ADD26R,0.033X0.030*%
%ADD27R,0.030X0.033*%
%ADD28R,0.118X0.118*%
%ADD29R,0.075X0.075*%
%ADD30R,0.055X0.063*%
%ADD31R,0.053X0.016*%
%ADD32R,0.029X0.110*%
G04:AMPARAMS|DCode=33|XSize=49mil|YSize=22mil|CornerRadius=5mil|HoleSize=0mil|Usage=FLASHONLY|Rotation=270.000|XOffset=0mil|YOffset=0mil|HoleType=Round|Shape=RoundedRectangle|*
%AMROUNDEDRECTD33*
21,1,0.049,0.011,0,0,270.0*
21,1,0.038,0.022,0,0,270.0*
1,1,0.011,-0.005,-0.019*
1,1,0.011,-0.005,0.019*
1,1,0.011,0.005,0.019*
1,1,0.011,0.005,-0.019*
%
%ADD33ROUNDEDRECTD33*%
%ADD34R,0.035X0.033*%
%ADD35R,0.033X0.035*%
%ADD36R,0.071X0.045*%
%ADD37R,0.134X0.016*%
%ADD38R,0.010X0.028*%
%ADD60C,0.051*%
%ADD63C,0.024*%
%ADD64C,0.012*%
%ADD65C,0.016*%
%ADD66C,0.020*%
%ADD67C,0.024*%
%ADD68O,0.071X0.035*%
%ADD69C,0.020*%
%ADD70C,0.018*%
G36*
X500Y272D02*
X487D01*
X486Y273D01*
X480Y276D01*
X473D01*
X467Y273D01*
X466Y272D01*
X439D01*
X436Y271D01*
X433Y269D01*
X432Y267D01*
X431Y264D01*
Y248D01*
X432Y245D01*
X433Y242D01*
X436Y241D01*
X437Y235D01*
X437Y235D01*
Y228D01*
X440Y222D01*
X444Y217D01*
X450Y215D01*
X457D01*
X463Y217D01*
X465Y217D01*
X466Y216D01*
X468Y214D01*
X471Y213D01*
X481D01*
X484Y214D01*
X486Y215D01*
X488Y214D01*
X491Y213D01*
X500D01*
Y31D01*
X374D01*
Y276D01*
X390Y291D01*
X500D01*
Y272D01*
D02*
G37*
G36*
X638Y276D02*
Y31D01*
X512D01*
Y213D01*
X521D01*
X524Y214D01*
X526Y215D01*
X527Y214D01*
X531Y213D01*
X540D01*
X541Y211D01*
X546Y206D01*
X552Y204D01*
X558D01*
X565Y206D01*
X569Y211D01*
X572Y217D01*
Y224D01*
X569Y230D01*
X565Y235D01*
X564Y235D01*
X565Y240D01*
X573D01*
X576Y241D01*
X579Y242D01*
X580Y245D01*
X581Y248D01*
Y264D01*
X580Y267D01*
X579Y269D01*
X576Y271D01*
X573Y272D01*
X549D01*
X547Y273D01*
X540D01*
X538Y272D01*
X512D01*
Y291D01*
X622D01*
X638Y276D01*
D02*
G37*
G36*
X909Y288D02*
X905Y284D01*
X898D01*
X896Y284D01*
X871D01*
X869Y284D01*
X863D01*
X861Y284D01*
X848D01*
X845Y283D01*
X843Y281D01*
X841Y279D01*
X840Y276D01*
Y260D01*
X841Y257D01*
X843Y254D01*
X845Y252D01*
X848Y252D01*
X861D01*
X863Y251D01*
X869D01*
X873Y247D01*
Y233D01*
X873Y230D01*
X875Y228D01*
X878Y226D01*
X881Y225D01*
X891D01*
X894Y226D01*
X896Y227D01*
X898Y226D01*
X901Y225D01*
X905D01*
X906Y225D01*
X909Y223D01*
Y39D01*
X772D01*
Y303D01*
X909D01*
Y288D01*
D02*
G37*
G36*
X1019Y302D02*
X1051D01*
X1067Y286D01*
Y251D01*
Y190D01*
Y39D01*
X917D01*
Y223D01*
X920Y225D01*
X930D01*
X933Y226D01*
X935Y227D01*
X937Y226D01*
X940Y225D01*
X950D01*
X953Y226D01*
X953Y226D01*
X954Y223D01*
X959Y218D01*
X965Y216D01*
X972D01*
X978Y218D01*
X983Y223D01*
X985Y229D01*
Y236D01*
X983Y242D01*
X978Y246D01*
X977Y247D01*
X978Y252D01*
X982D01*
X985Y252D01*
X988Y254D01*
X990Y257D01*
X990Y260D01*
Y276D01*
X990Y279D01*
X988Y281D01*
X985Y283D01*
X982Y284D01*
X962D01*
X960Y284D01*
X953D01*
X951Y284D01*
X918D01*
Y303D01*
X1019D01*
Y302D01*
D02*
G37*
G36*
X1338Y285D02*
X1334Y285D01*
X1294D01*
X1293Y286D01*
X1287Y288D01*
X1280D01*
X1274Y286D01*
X1271Y283D01*
X1270Y282D01*
X1268Y280D01*
X1268Y277D01*
X1267Y275D01*
Y268D01*
X1268Y266D01*
Y261D01*
X1268Y258D01*
X1270Y255D01*
X1273Y253D01*
X1276Y253D01*
X1300D01*
Y234D01*
X1301Y231D01*
X1302Y229D01*
X1305Y227D01*
X1308Y226D01*
X1318D01*
X1321Y227D01*
X1323Y228D01*
X1325Y227D01*
X1328Y226D01*
X1334D01*
X1338Y226D01*
X1338Y221D01*
Y39D01*
X1213D01*
Y276D01*
X1240Y303D01*
X1338D01*
Y285D01*
D02*
G37*
G36*
X1437Y303D02*
X1440Y300D01*
Y286D01*
X1454D01*
X1476Y264D01*
Y39D01*
X1346D01*
Y225D01*
X1347Y226D01*
X1357D01*
X1360Y227D01*
X1362Y228D01*
X1364Y227D01*
X1367Y226D01*
X1377D01*
X1378Y226D01*
X1380Y223D01*
X1384Y218D01*
X1390Y216D01*
X1397D01*
X1403Y218D01*
X1408Y223D01*
X1410Y229D01*
Y236D01*
X1408Y242D01*
X1405Y245D01*
X1404Y250D01*
X1405Y251D01*
X1406Y253D01*
X1409D01*
X1413Y253D01*
X1415Y255D01*
X1417Y258D01*
X1417Y261D01*
Y277D01*
X1417Y280D01*
X1415Y282D01*
X1413Y284D01*
X1409Y285D01*
X1348D01*
X1346Y285D01*
Y303D01*
X1437D01*
Y303D01*
D02*
G37*
D10*
X1262Y524D02*
X1285Y500D01*
X1287Y1388D02*
X1495Y1595D01*
X1073Y1439D02*
X1076Y1436D01*
X1084D02*
X1124Y1396D01*
X1076Y1436D02*
X1084D01*
X1124Y1391D02*
X1134Y1381D01*
X1124Y1391D02*
Y1396D01*
X1134Y1364D02*
Y1381D01*
X83Y1727D02*
Y1730D01*
X192Y1617D02*
X843D01*
X949Y1642D02*
X1079Y1512D01*
X221Y1642D02*
X949D01*
X842Y1403D02*
X991D01*
X651Y1362D02*
X802D01*
X991Y1403D02*
X1002Y1392D01*
Y1370D02*
X1008Y1364D01*
X1002Y1370D02*
Y1392D01*
X802Y1362D02*
X842Y1403D01*
X826Y1364D02*
X976D01*
X601Y1322D02*
Y1362D01*
Y1322D02*
X628Y1295D01*
X757D02*
X826Y1364D01*
X628Y1295D02*
X757D01*
X451Y1322D02*
X493Y1280D01*
X764D02*
X812Y1328D01*
X493Y1280D02*
X764D01*
X812Y1328D02*
X955D01*
X1071Y974D02*
Y1212D01*
X451Y1322D02*
Y1362D01*
X955Y1328D02*
X1071Y1212D01*
X276Y1244D02*
X917D01*
X183Y1337D02*
X276Y1244D01*
X1248Y346D02*
X1287D01*
X1199Y396D02*
X1248Y346D01*
X1199Y398D02*
Y400D01*
X1138Y458D02*
Y504D01*
Y458D02*
X1166Y429D01*
X1169D01*
X1199Y400D01*
X1087Y461D02*
X1148Y400D01*
Y398D02*
Y400D01*
X1087Y461D02*
Y528D01*
X925Y406D02*
Y461D01*
X913Y472D02*
X925Y461D01*
X913Y528D02*
X942D01*
X947Y523D01*
Y448D02*
Y523D01*
X945Y446D02*
X947Y448D01*
X945Y406D02*
Y446D01*
X837Y370D02*
X841Y365D01*
X837Y459D02*
X850Y472D01*
X837Y370D02*
Y459D01*
X841Y365D02*
X860D01*
X724Y453D02*
X770Y407D01*
X724Y453D02*
Y504D01*
X506Y537D02*
Y625D01*
Y537D02*
X539Y504D01*
X460Y580D02*
X506Y625D01*
X472Y461D02*
X474D01*
X516Y419D01*
Y394D02*
Y419D01*
X474Y516D02*
X498Y492D01*
X535Y394D02*
X536Y395D01*
Y402D01*
X548Y413D01*
X498Y492D02*
X499D01*
X548Y444D01*
Y413D02*
Y444D01*
X406Y385D02*
Y461D01*
Y385D02*
X436Y354D01*
X450D01*
X451Y353D01*
X411Y580D02*
X460D01*
X372Y540D02*
X411Y580D01*
X341Y400D02*
X372Y431D01*
X561Y404D02*
X563Y406D01*
Y618D01*
X556Y625D02*
Y644D01*
X534Y379D02*
Y394D01*
X506Y625D02*
Y644D01*
X1077Y551D02*
X1170D01*
X1015Y390D02*
Y489D01*
X1077Y551D01*
X978Y386D02*
Y475D01*
X1070Y567D02*
X1157D01*
X978Y475D02*
X1070Y567D01*
X372Y431D02*
Y540D01*
X339Y400D02*
X341D01*
X185Y603D02*
X434D01*
X456Y625D01*
Y644D01*
X144Y643D02*
X185Y603D01*
X690Y1110D02*
X789D01*
X796Y1117D02*
X918D01*
X456Y877D02*
X690Y1110D01*
X789D02*
X796Y1117D01*
X456Y858D02*
Y877D01*
X1375Y570D02*
Y623D01*
X1373Y840D02*
Y900D01*
X45Y1056D02*
X135Y1146D01*
X756Y1181D02*
X917D01*
X135Y1146D02*
X720D01*
X756Y1181D01*
X83Y1041D02*
X168Y1126D01*
X752Y1150D02*
X917D01*
X168Y1126D02*
X728D01*
X752Y1150D01*
X80Y991D02*
X183D01*
X45Y1025D02*
X80Y991D01*
X45Y1025D02*
Y1056D01*
X917Y1181D02*
X918Y1180D01*
X917Y1150D02*
X918Y1149D01*
X1071Y974D02*
X1073Y972D01*
X1287Y1686D02*
X1542D01*
X1039Y1439D02*
X1287Y1686D01*
X1039Y1364D02*
Y1439D01*
X1542Y1673D02*
Y1686D01*
Y1673D02*
X1568Y1647D01*
X1669D01*
X1670Y1646D01*
X1495Y1595D02*
X1568D01*
X1283Y1388D02*
X1287D01*
X1071Y1347D02*
X1081Y1337D01*
X1088Y1325D02*
X1221D01*
X1071Y1347D02*
Y1364D01*
X1221Y1325D02*
X1283Y1388D01*
X1081Y1332D02*
Y1337D01*
Y1332D02*
X1088Y1325D01*
X1568Y1595D02*
X1604Y1631D01*
X1629D01*
X1636Y1624D01*
X1666D01*
X1670Y1620D01*
X1398Y366D02*
X1421D01*
X1371Y401D02*
Y424D01*
X1391Y386D02*
X1398D01*
X1390Y387D02*
X1391Y386D01*
X1390Y387D02*
Y452D01*
X1267Y366D02*
X1287D01*
X1351Y407D02*
X1352Y406D01*
X1398Y346D02*
X1449D01*
X1371Y401D02*
X1371Y401D01*
X1313Y406D02*
X1314Y406D01*
Y392D02*
Y406D01*
Y392D02*
X1323Y383D01*
X1362D01*
X1371Y392D01*
Y401D01*
X1371Y401D01*
X1274Y567D02*
X1390Y452D01*
X1274Y567D02*
Y624D01*
X1324Y539D02*
Y624D01*
X1285Y500D02*
X1295D01*
X1195Y461D02*
X1239Y417D01*
X1260Y469D02*
X1304D01*
X1421Y366D02*
X1426Y371D01*
Y438D01*
X1324Y539D02*
X1426Y438D01*
X1449Y346D02*
X1463Y360D01*
X1465D01*
X1304Y469D02*
X1351Y421D01*
Y407D02*
Y421D01*
X1239Y394D02*
X1267Y366D01*
X1239Y394D02*
Y417D01*
X1193Y461D02*
X1195D01*
X1295Y500D02*
X1371Y424D01*
X1260Y524D02*
X1262D01*
X1324Y839D02*
Y1087D01*
X1293Y1118D02*
X1324Y1087D01*
X1256Y1118D02*
X1293D01*
X1173Y623D02*
X1174Y624D01*
X1173Y583D02*
Y623D01*
X1157Y567D02*
X1173Y583D01*
X1291Y1087D02*
X1296Y1082D01*
X1224Y839D02*
Y983D01*
X1197Y1011D02*
X1224Y983D01*
X1174Y839D02*
Y1002D01*
X1165Y1011D02*
X1174Y1002D01*
X1170Y551D02*
X1224Y606D01*
Y624D01*
X1296Y984D02*
Y1082D01*
X1274Y839D02*
Y962D01*
X1296Y984D01*
X1165Y1011D02*
Y1028D01*
X1197Y1011D02*
Y1028D01*
X989Y365D02*
X1015Y390D01*
X970Y365D02*
X989D01*
X1256Y1087D02*
X1291D01*
X1255Y1086D02*
X1256Y1087D01*
X977Y385D02*
X978Y386D01*
X970Y385D02*
X977D01*
X1255Y1117D02*
X1256Y1118D01*
X183Y1680D02*
X221Y1642D01*
X556Y899D02*
X600Y943D01*
X847D02*
X847Y943D01*
X1094D01*
X1102Y1028D02*
X1103Y1027D01*
X600Y943D02*
X847D01*
X606Y858D02*
X629D01*
X634Y825D02*
Y853D01*
X641Y818D02*
X992D01*
X629Y858D02*
X634Y853D01*
X992Y818D02*
X1134Y960D01*
Y1028D01*
X634Y825D02*
X641Y818D01*
X1103Y952D02*
Y1027D01*
X1094Y943D02*
X1103Y952D01*
X556Y858D02*
Y899D01*
X959Y1073D02*
Y1301D01*
X872Y986D02*
X959Y1073D01*
X506Y899D02*
X593Y986D01*
X260Y1213D02*
X917D01*
X918Y1212D01*
X83Y1385D02*
Y1387D01*
Y1385D02*
X175Y1292D01*
X181D01*
X260Y1213D01*
X1142Y1508D02*
X1165Y1484D01*
Y1364D02*
Y1484D01*
X918Y1306D02*
X954D01*
X959Y1301D01*
X593Y986D02*
X872D01*
X506Y858D02*
Y899D01*
X917Y1244D02*
X918Y1243D01*
X83Y1727D02*
X192Y1617D01*
X843D02*
X1016Y1444D01*
X1526Y262D02*
X1528Y260D01*
X1465Y309D02*
X1467D01*
X1514Y262D02*
X1526D01*
X1467Y309D02*
X1514Y262D01*
X711Y258D02*
X713Y256D01*
X646Y325D02*
X648D01*
X711Y262D01*
Y258D02*
Y262D01*
X644Y376D02*
X646D01*
X601Y334D02*
X644Y376D01*
X561Y334D02*
X601D01*
X1104Y262D02*
X1106Y260D01*
X1045Y325D02*
X1104Y266D01*
Y262D02*
Y266D01*
X1041Y376D02*
X1043D01*
X1011Y345D02*
X1041Y376D01*
X970Y345D02*
X1011D01*
X1043Y325D02*
X1045D01*
X477Y379D02*
X486Y370D01*
X477Y379D02*
Y393D01*
X486Y370D02*
X526D01*
X476Y394D02*
X477Y393D01*
X886Y406D02*
X887Y405D01*
X944Y391D02*
Y406D01*
X896Y382D02*
X935D01*
X944Y391D01*
X341Y400D02*
X406Y334D01*
X451D01*
X339Y451D02*
X346Y459D01*
Y520D01*
X526Y370D02*
X534Y379D01*
X561Y373D02*
Y404D01*
X576Y354D02*
X606Y385D01*
Y644D01*
X562Y354D02*
X576D01*
X561Y353D02*
X562Y354D01*
X556Y625D02*
X563Y618D01*
X772Y459D02*
X776Y463D01*
Y539D01*
X770Y407D02*
X774D01*
X836Y345D01*
X860D01*
X887Y391D02*
Y405D01*
Y391D02*
X896Y382D01*
X913Y528D02*
X915D01*
D14*
X853Y1779D02*
Y1719D01*
X883D01*
X893Y1729D01*
Y1739D01*
X883Y1749D01*
X853D01*
X883D01*
X893Y1759D01*
Y1769D01*
X883Y1779D01*
X853D01*
X913D02*
X953D01*
X933D01*
Y1719D01*
X1013Y1769D02*
X1003Y1779D01*
X983D01*
X973Y1769D01*
Y1759D01*
X983Y1749D01*
X1003D01*
X1013Y1739D01*
Y1729D01*
X1003Y1719D01*
X983D01*
X973Y1729D01*
D15*
X1424Y624D02*
D03*
X1374D02*
D03*
X1324D02*
D03*
X1274D02*
D03*
X1224D02*
D03*
X1174D02*
D03*
X1124D02*
D03*
X1074D02*
D03*
Y839D02*
D03*
X1124D02*
D03*
X1174D02*
D03*
X1224D02*
D03*
X1274D02*
D03*
X1324D02*
D03*
X1374D02*
D03*
X1424D02*
D03*
X706Y644D02*
D03*
X656D02*
D03*
X606D02*
D03*
X556D02*
D03*
X506D02*
D03*
X456D02*
D03*
X406D02*
D03*
X356D02*
D03*
Y858D02*
D03*
X406D02*
D03*
X456D02*
D03*
X506D02*
D03*
X556D02*
D03*
X606D02*
D03*
X656D02*
D03*
X706D02*
D03*
D16*
X976Y1028D02*
D03*
X1008D02*
D03*
X1039D02*
D03*
X1071D02*
D03*
X1102D02*
D03*
X1134D02*
D03*
X1165D02*
D03*
X1197D02*
D03*
Y1364D02*
D03*
X1165D02*
D03*
X1134D02*
D03*
X1102D02*
D03*
X1071D02*
D03*
X1039D02*
D03*
X1008D02*
D03*
X976D02*
D03*
D17*
X1255Y1086D02*
D03*
Y1117D02*
D03*
Y1149D02*
D03*
Y1180D02*
D03*
Y1212D02*
D03*
Y1243D02*
D03*
Y1275D02*
D03*
Y1306D02*
D03*
X918D02*
D03*
Y1275D02*
D03*
Y1243D02*
D03*
Y1212D02*
D03*
Y1180D02*
D03*
Y1149D02*
D03*
Y1117D02*
D03*
Y1086D02*
D03*
D18*
X1705Y585D02*
D03*
Y623D02*
D03*
Y660D02*
D03*
X1615Y585D02*
D03*
Y660D02*
D03*
D19*
X1612Y1485D02*
D03*
X1575D02*
D03*
X1537D02*
D03*
X1612Y1394D02*
D03*
X1537D02*
D03*
D20*
X1378Y296D02*
D03*
X1307D02*
D03*
X951Y295D02*
D03*
X879D02*
D03*
X542Y283D02*
D03*
X470D02*
D03*
D21*
X1343Y322D02*
D03*
X915Y321D02*
D03*
X506Y309D02*
D03*
D22*
X1287Y346D02*
D03*
Y386D02*
D03*
Y366D02*
D03*
X1398Y386D02*
D03*
Y366D02*
D03*
Y346D02*
D03*
X860Y345D02*
D03*
Y385D02*
D03*
Y365D02*
D03*
X970Y385D02*
D03*
Y365D02*
D03*
Y345D02*
D03*
X451Y334D02*
D03*
Y373D02*
D03*
Y353D02*
D03*
X561Y373D02*
D03*
Y353D02*
D03*
Y334D02*
D03*
D23*
X1333Y406D02*
D03*
X1352D02*
D03*
X1372D02*
D03*
X1313D02*
D03*
X906Y406D02*
D03*
X925D02*
D03*
X945D02*
D03*
X886D02*
D03*
X496Y394D02*
D03*
X516D02*
D03*
X535D02*
D03*
X476D02*
D03*
D24*
X1343Y269D02*
D03*
X915Y268D02*
D03*
X506Y256D02*
D03*
D25*
X406Y516D02*
D03*
Y461D02*
D03*
X472Y516D02*
D03*
Y461D02*
D03*
X913Y528D02*
D03*
Y472D02*
D03*
X850Y528D02*
D03*
Y472D02*
D03*
X1260Y524D02*
D03*
Y469D02*
D03*
X1193Y516D02*
D03*
Y461D02*
D03*
D26*
X339Y451D02*
D03*
Y400D02*
D03*
X646Y325D02*
D03*
Y376D02*
D03*
X772Y459D02*
D03*
Y407D02*
D03*
X1043Y325D02*
D03*
Y376D02*
D03*
X1465Y309D02*
D03*
Y360D02*
D03*
D27*
X1148Y398D02*
D03*
X1199D02*
D03*
D28*
X94Y114D02*
D03*
X575Y94D02*
D03*
X106Y370D02*
D03*
X437Y94D02*
D03*
X1004Y98D02*
D03*
X831D02*
D03*
X1413Y102D02*
D03*
X1276D02*
D03*
D29*
X1776Y1598D02*
D03*
Y1693D02*
D03*
D30*
X1679Y1772D02*
D03*
Y1520D02*
D03*
D31*
X1670Y1697D02*
D03*
Y1671D02*
D03*
Y1646D02*
D03*
Y1620D02*
D03*
Y1594D02*
D03*
D32*
X601Y1362D02*
D03*
Y1522D02*
D03*
X651Y1362D02*
D03*
Y1522D02*
D03*
X451Y1362D02*
D03*
Y1522D02*
D03*
X501Y1362D02*
D03*
Y1522D02*
D03*
X551Y1362D02*
D03*
Y1522D02*
D03*
D33*
X1617Y1686D02*
D03*
X1579D02*
D03*
X1542D02*
D03*
Y1595D02*
D03*
X1617D02*
D03*
D34*
X1335Y1222D02*
D03*
Y1274D02*
D03*
X1546Y636D02*
D03*
Y585D02*
D03*
X1766Y628D02*
D03*
Y577D02*
D03*
D35*
X1073Y972D02*
D03*
X1022D02*
D03*
X1561Y1337D02*
D03*
X1612D02*
D03*
X1569Y1546D02*
D03*
X1620D02*
D03*
X1427Y567D02*
D03*
X1376D02*
D03*
X1372Y902D02*
D03*
X1423D02*
D03*
X1215Y1417D02*
D03*
X1266D02*
D03*
X707Y587D02*
D03*
X656D02*
D03*
X656Y913D02*
D03*
X707D02*
D03*
X927Y972D02*
D03*
X978D02*
D03*
D36*
X728Y217D02*
D03*
Y335D02*
D03*
X1776Y228D02*
D03*
Y346D02*
D03*
X1610Y228D02*
D03*
Y346D02*
D03*
X1693Y228D02*
D03*
Y346D02*
D03*
X1110Y220D02*
D03*
Y339D02*
D03*
D37*
X1343Y269D02*
D03*
X915Y268D02*
D03*
X506Y256D02*
D03*
D38*
X1313Y248D02*
D03*
X1372D02*
D03*
X1333D02*
D03*
X1352D02*
D03*
X886Y247D02*
D03*
X945D02*
D03*
X906D02*
D03*
X925D02*
D03*
X476Y235D02*
D03*
X535D02*
D03*
X496D02*
D03*
X516D02*
D03*
D60*
X83Y1041D02*
D03*
X183Y991D02*
D03*
X83Y941D02*
D03*
X183Y891D02*
D03*
X83Y1387D02*
D03*
X183Y1337D02*
D03*
X83Y1287D02*
D03*
X183Y1237D02*
D03*
X83Y1730D02*
D03*
X183Y1680D02*
D03*
X83Y1630D02*
D03*
X183Y1580D02*
D03*
X244Y643D02*
D03*
X194Y543D02*
D03*
X144Y643D02*
D03*
X94Y543D02*
D03*
D63*
X1073Y1439D02*
D03*
X1016Y1444D02*
D03*
X1079Y1512D02*
D03*
X1087Y528D02*
D03*
X1426Y568D02*
D03*
X1546Y585D02*
D03*
X146Y339D02*
D03*
X71Y374D02*
D03*
X146Y378D02*
D03*
X142Y409D02*
D03*
X71D02*
D03*
X106D02*
D03*
X1142Y1508D02*
D03*
X776Y539D02*
D03*
X705Y559D02*
D03*
X71Y335D02*
D03*
X110D02*
D03*
X106Y370D02*
D03*
D64*
X1375Y570D02*
X1378Y567D01*
X1374Y624D02*
X1375Y623D01*
X1373Y840D02*
X1374Y839D01*
X1372Y902D02*
X1373Y900D01*
X656Y587D02*
X656Y587D01*
Y643D02*
X656Y644D01*
X656Y587D02*
Y643D01*
X656Y859D02*
Y913D01*
X656Y913D02*
X656Y913D01*
Y859D02*
X656Y858D01*
X1700Y654D02*
X1705Y660D01*
X1680Y654D02*
X1700D01*
X1663Y638D02*
X1680Y654D01*
X1663Y607D02*
Y638D01*
Y607D02*
X1673Y597D01*
X1676D01*
X1689Y585D01*
X1705D01*
X1197Y1364D02*
Y1381D01*
X1204Y1388D01*
Y1406D01*
X1215Y1417D01*
X1670Y1697D02*
X1670Y1697D01*
X1679Y1520D02*
X1679Y1520D01*
D65*
X1609Y1459D02*
Y1481D01*
X1612Y1337D02*
Y1394D01*
X1537Y1485D02*
X1541Y1481D01*
Y1465D02*
Y1481D01*
Y1465D02*
X1548Y1458D01*
X1609Y1481D02*
X1612Y1485D01*
X1591Y1441D02*
X1609Y1459D01*
X1548Y1452D02*
Y1458D01*
X1559Y1441D02*
X1591D01*
X1548Y1452D02*
X1559Y1441D01*
X1425Y906D02*
X1426Y905D01*
Y840D02*
Y905D01*
X1424Y839D02*
X1426Y840D01*
X977Y973D02*
X978Y972D01*
X977Y973D02*
Y1027D01*
X976Y1028D02*
X977Y1027D01*
X1255Y1275D02*
X1334D01*
X1335Y1274D01*
X978Y970D02*
Y972D01*
Y970D02*
X979Y969D01*
X1569Y1546D02*
X1572Y1543D01*
Y1488D02*
Y1543D01*
Y1488D02*
X1575Y1485D01*
X706Y913D02*
X707Y913D01*
X706Y858D02*
Y913D01*
X706Y858D02*
X706Y858D01*
X1425Y906D02*
X1427D01*
X1763Y626D02*
X1766Y628D01*
X1708Y626D02*
X1763D01*
X1705Y623D02*
X1708Y626D01*
X978Y969D02*
X979Y969D01*
D66*
X1617Y1595D02*
X1618Y1594D01*
Y1548D02*
Y1594D01*
Y1548D02*
X1620Y1546D01*
X1612Y1485D02*
X1614Y1486D01*
Y1540D02*
X1620Y1546D01*
X1614Y1486D02*
Y1540D01*
X1617Y1594D02*
X1670D01*
X1617Y1595D02*
X1617Y1594D01*
D67*
X1758Y585D02*
X1760Y582D01*
X1766Y446D02*
X1768Y445D01*
X1766Y446D02*
Y577D01*
X1706Y585D02*
X1758D01*
X1761Y582D02*
X1766Y577D01*
X1760Y582D02*
X1761D01*
X1705Y585D02*
X1706Y585D01*
X1426Y568D02*
Y623D01*
X1546Y585D02*
X1615D01*
X1424Y624D02*
X1426Y623D01*
Y568D02*
X1427Y567D01*
X706Y560D02*
Y585D01*
X706Y585D01*
X705Y559D02*
X706Y560D01*
X706Y585D02*
Y644D01*
X706Y644D02*
X706Y644D01*
D68*
X1776Y1776D02*
D03*
Y1516D02*
D03*
D69*
Y1776D02*
D03*
Y1516D02*
D03*
D70*
X651Y1522D02*
D03*
X451D02*
D03*
X601D02*
D03*
X551D02*
D03*
X1138Y504D02*
D03*
X724D02*
D03*
X539D02*
D03*
X474Y516D02*
D03*
X1579Y1686D02*
D03*
X1283Y272D02*
D03*
X1378Y567D02*
D03*
X1287Y323D02*
D03*
X1331D02*
D03*
X1382D02*
D03*
X1075Y854D02*
D03*
X1074Y624D02*
D03*
X938Y1087D02*
D03*
X1335Y1274D02*
D03*
X1275Y1244D02*
D03*
X1335Y1222D02*
D03*
X1022Y972D02*
D03*
X1670Y1697D02*
D03*
X1776Y1693D02*
D03*
Y1598D02*
D03*
X1610Y228D02*
D03*
Y346D02*
D03*
X693Y220D02*
D03*
X555D02*
D03*
X1394Y232D02*
D03*
X969D02*
D03*
X454Y232D02*
D03*
X331Y228D02*
D03*
X356Y644D02*
D03*
X1528Y260D02*
D03*
X1169Y220D02*
D03*
X728Y217D02*
D03*
X957Y323D02*
D03*
X915Y321D02*
D03*
X870Y323D02*
D03*
X728Y335D02*
D03*
X134Y71D02*
D03*
X98D02*
D03*
X55D02*
D03*
X130Y98D02*
D03*
X94D02*
D03*
X130Y130D02*
D03*
X87D02*
D03*
X130Y157D02*
D03*
X87D02*
D03*
X51D02*
D03*
X55Y98D02*
D03*
X713Y256D02*
D03*
X1106Y260D02*
D03*
X656Y587D02*
D03*
X1193Y516D02*
D03*
X914Y528D02*
D03*
X850D02*
D03*
X1260Y524D02*
D03*
X1766Y628D02*
D03*
X1546Y636D02*
D03*
X1275Y1307D02*
D03*
X1679Y1520D02*
D03*
X1679Y1772D02*
D03*
X1569Y1546D02*
D03*
X1215Y1417D02*
D03*
X1266D02*
D03*
X1561Y1337D02*
D03*
X1612D02*
D03*
X1423Y902D02*
D03*
X1372D02*
D03*
X978Y972D02*
D03*
X927D02*
D03*
X656Y913D02*
D03*
X707D02*
D03*
X354Y866D02*
D03*
X957Y268D02*
D03*
X902D02*
D03*
X866D02*
D03*
X506Y256D02*
D03*
X543D02*
D03*
X1768Y445D02*
D03*
X1394Y268D02*
D03*
X1343Y269D02*
D03*
X1110Y339D02*
D03*
Y220D02*
D03*
X1531Y217D02*
D03*
X1693Y354D02*
D03*
X1693Y228D02*
D03*
X1776D02*
D03*
Y346D02*
D03*
X55Y126D02*
D03*
X406Y516D02*
D03*
X535Y308D02*
D03*
X559D02*
D03*
X512D02*
D03*
X488D02*
D03*
X461D02*
D03*
X346Y520D02*
D03*
X476Y259D02*
D03*
X244Y244D02*
D03*
M02*
