G04*
G04 #@! TF.GenerationSoftware,Altium Limited,Altium Designer,21.9.2 (33)*
G04*
G04 Layer_Physical_Order=4*
G04 Layer_Color=16711680*
%FSLAX23Y23*%
%MOIN*%
G70*
G04*
G04 #@! TF.SameCoordinates,057B0E17-ACE6-4E06-8752-021C102DDC49*
G04*
G04*
G04 #@! TF.FilePolarity,Positive*
G04*
G01*
G75*
%ADD10C,0.008*%
%ADD34R,0.035X0.033*%
%ADD36R,0.071X0.045*%
%ADD63C,0.024*%
%ADD65C,0.016*%
%ADD68O,0.071X0.035*%
%ADD69C,0.020*%
%ADD70C,0.018*%
%ADD79R,0.064X0.024*%
%ADD80R,0.180X0.189*%
%ADD81C,0.052*%
%ADD82C,0.060*%
G36*
X1728Y1803D02*
X1744D01*
X1745Y1798D01*
X1745Y1798D01*
X1740Y1794D01*
X1736Y1788D01*
X1733Y1782D01*
X1732Y1776D01*
X1733Y1769D01*
X1736Y1763D01*
X1740Y1757D01*
X1745Y1753D01*
X1751Y1751D01*
X1758Y1750D01*
X1793D01*
X1800Y1751D01*
X1806Y1753D01*
X1810Y1756D01*
X1815Y1754D01*
Y1537D01*
X1810Y1535D01*
X1806Y1538D01*
X1800Y1541D01*
X1793Y1542D01*
X1758D01*
X1751Y1541D01*
X1745Y1538D01*
X1740Y1534D01*
X1736Y1529D01*
X1733Y1522D01*
X1732Y1516D01*
X1733Y1509D01*
X1736Y1503D01*
X1740Y1497D01*
X1745Y1493D01*
X1751Y1491D01*
X1758Y1490D01*
X1793D01*
X1800Y1491D01*
X1806Y1493D01*
X1810Y1496D01*
X1815Y1494D01*
Y858D01*
X1772Y815D01*
X148D01*
X146Y819D01*
X147Y821D01*
X150Y831D01*
Y841D01*
X147Y851D01*
X142Y859D01*
X135Y866D01*
X126Y871D01*
X117Y874D01*
X107D01*
X97Y871D01*
X88Y866D01*
X81Y859D01*
X76Y851D01*
X74Y841D01*
Y831D01*
X76Y821D01*
X78Y819D01*
X75Y815D01*
X24D01*
Y1799D01*
X25Y1803D01*
X385Y1804D01*
X386Y1799D01*
X378Y1796D01*
X367Y1788D01*
X357Y1779D01*
X350Y1768D01*
X345Y1756D01*
X343Y1743D01*
Y1730D01*
X345Y1717D01*
X350Y1705D01*
X357Y1694D01*
X367Y1684D01*
X378Y1677D01*
X390Y1672D01*
X403Y1669D01*
X416D01*
X429Y1672D01*
X441Y1677D01*
X452Y1684D01*
X461Y1694D01*
X469Y1705D01*
X474Y1717D01*
X476Y1730D01*
Y1743D01*
X474Y1756D01*
X469Y1768D01*
X461Y1779D01*
X452Y1788D01*
X441Y1796D01*
X433Y1799D01*
X434Y1804D01*
X1724Y1807D01*
X1728Y1803D01*
D02*
G37*
G36*
X1575Y512D02*
X1278D01*
X1275Y517D01*
X1277Y520D01*
Y527D01*
X1274Y533D01*
X1269Y538D01*
X1263Y540D01*
X1257D01*
X1250Y538D01*
X1246Y533D01*
X1243Y527D01*
Y520D01*
X1245Y517D01*
X1241Y512D01*
X1210D01*
X1210Y512D01*
Y519D01*
X1207Y525D01*
X1202Y530D01*
X1196Y532D01*
X1190D01*
X1183Y530D01*
X1179Y525D01*
X1176Y519D01*
Y512D01*
X1176Y512D01*
X1153D01*
X1152Y513D01*
X1147Y518D01*
X1141Y521D01*
X1134D01*
X1128Y518D01*
X1126Y516D01*
X933D01*
X930Y521D01*
X931Y524D01*
Y531D01*
X929Y537D01*
X924Y542D01*
X918Y544D01*
X911D01*
X905Y542D01*
X900Y537D01*
X898Y531D01*
Y524D01*
X899Y521D01*
X896Y516D01*
X869D01*
X866Y521D01*
X867Y524D01*
Y531D01*
X865Y537D01*
X860Y542D01*
X854Y544D01*
X847D01*
X841Y542D01*
X836Y537D01*
X834Y531D01*
Y524D01*
X835Y521D01*
X832Y516D01*
X736D01*
X734Y518D01*
X728Y521D01*
X721D01*
X715Y518D01*
X713Y516D01*
X551D01*
X549Y518D01*
X543Y521D01*
X536D01*
X530Y518D01*
X525Y513D01*
X525Y512D01*
X492D01*
X491Y512D01*
Y519D01*
X489Y525D01*
X484Y530D01*
X478Y532D01*
X471D01*
X465Y530D01*
X460Y525D01*
X458Y519D01*
Y512D01*
X457Y512D01*
X423D01*
X422Y512D01*
Y519D01*
X420Y525D01*
X415Y530D01*
X409Y532D01*
X402D01*
X396Y530D01*
X391Y525D01*
X389Y519D01*
Y512D01*
X388Y512D01*
X339D01*
Y631D01*
X344Y633D01*
X347Y630D01*
X353Y627D01*
X360D01*
X366Y630D01*
X370Y634D01*
X373Y640D01*
Y647D01*
X370Y653D01*
X366Y658D01*
X360Y660D01*
X353D01*
X347Y658D01*
X344Y655D01*
X339Y657D01*
Y669D01*
X1575D01*
Y512D01*
D02*
G37*
G36*
X1815Y311D02*
X284D01*
Y331D01*
X205D01*
Y311D01*
X196D01*
Y488D01*
X199Y492D01*
X528D01*
X530Y490D01*
X536Y487D01*
X543D01*
X549Y490D01*
X551Y492D01*
X713D01*
X715Y490D01*
X721Y487D01*
X728D01*
X734Y490D01*
X736Y492D01*
X1126D01*
X1128Y490D01*
X1134Y487D01*
X1141D01*
X1147Y490D01*
X1150Y492D01*
X1815D01*
Y311D01*
D02*
G37*
G36*
Y20D02*
X0D01*
Y276D01*
X1815D01*
Y20D01*
D02*
G37*
%LPC*%
G36*
X1682Y1788D02*
X1676D01*
X1670Y1786D01*
X1665Y1781D01*
X1662Y1775D01*
Y1768D01*
X1665Y1762D01*
X1670Y1757D01*
X1676Y1755D01*
X1682D01*
X1689Y1757D01*
X1693Y1762D01*
X1696Y1768D01*
Y1775D01*
X1693Y1781D01*
X1689Y1786D01*
X1682Y1788D01*
D02*
G37*
G36*
X87Y1764D02*
X78D01*
X70Y1761D01*
X62Y1757D01*
X56Y1751D01*
X51Y1743D01*
X49Y1734D01*
Y1725D01*
X51Y1717D01*
X56Y1709D01*
X62Y1703D01*
X70Y1698D01*
X78Y1696D01*
X87D01*
X96Y1698D01*
X103Y1703D01*
X110Y1709D01*
X114Y1717D01*
X117Y1725D01*
Y1734D01*
X114Y1743D01*
X110Y1751D01*
X103Y1757D01*
X96Y1761D01*
X87Y1764D01*
D02*
G37*
G36*
X1674Y1714D02*
X1667D01*
X1661Y1711D01*
X1656Y1706D01*
X1654Y1700D01*
Y1694D01*
X1656Y1687D01*
X1661Y1683D01*
X1667Y1680D01*
X1674D01*
X1680Y1683D01*
X1684Y1687D01*
X1687Y1694D01*
Y1700D01*
X1684Y1706D01*
X1680Y1711D01*
X1674Y1714D01*
D02*
G37*
G36*
X1779Y1710D02*
X1772D01*
X1766Y1707D01*
X1761Y1702D01*
X1759Y1696D01*
Y1690D01*
X1761Y1683D01*
X1766Y1679D01*
X1772Y1676D01*
X1779D01*
X1785Y1679D01*
X1790Y1683D01*
X1792Y1690D01*
Y1696D01*
X1790Y1702D01*
X1785Y1707D01*
X1779Y1710D01*
D02*
G37*
G36*
X1583Y1703D02*
X1576D01*
X1570Y1701D01*
X1565Y1696D01*
X1562Y1690D01*
Y1683D01*
X1565Y1677D01*
X1570Y1672D01*
X1576Y1670D01*
X1583D01*
X1589Y1672D01*
X1593Y1677D01*
X1596Y1683D01*
Y1690D01*
X1593Y1696D01*
X1589Y1701D01*
X1583Y1703D01*
D02*
G37*
G36*
X187Y1714D02*
X178D01*
X170Y1711D01*
X162Y1707D01*
X156Y1701D01*
X151Y1693D01*
X149Y1684D01*
Y1675D01*
X151Y1667D01*
X156Y1659D01*
X162Y1653D01*
X170Y1648D01*
X178Y1646D01*
X187D01*
X196Y1648D01*
X203Y1653D01*
X210Y1659D01*
X214Y1667D01*
X217Y1675D01*
Y1684D01*
X214Y1693D01*
X210Y1701D01*
X203Y1707D01*
X196Y1711D01*
X187Y1714D01*
D02*
G37*
G36*
X1779Y1615D02*
X1772D01*
X1766Y1613D01*
X1761Y1608D01*
X1759Y1602D01*
Y1595D01*
X1761Y1589D01*
X1766Y1584D01*
X1772Y1582D01*
X1779D01*
X1785Y1584D01*
X1790Y1589D01*
X1792Y1595D01*
Y1602D01*
X1790Y1608D01*
X1785Y1613D01*
X1779Y1615D01*
D02*
G37*
G36*
X187Y1614D02*
X178D01*
X170Y1611D01*
X162Y1607D01*
X156Y1601D01*
X151Y1593D01*
X149Y1584D01*
Y1575D01*
X151Y1567D01*
X156Y1559D01*
X162Y1553D01*
X170Y1548D01*
X178Y1546D01*
X187D01*
X196Y1548D01*
X203Y1553D01*
X210Y1559D01*
X214Y1567D01*
X217Y1575D01*
Y1584D01*
X214Y1593D01*
X210Y1601D01*
X203Y1607D01*
X196Y1611D01*
X187Y1614D01*
D02*
G37*
G36*
X1572Y1563D02*
X1566D01*
X1559Y1560D01*
X1555Y1555D01*
X1552Y1549D01*
Y1543D01*
X1555Y1536D01*
X1559Y1532D01*
X1566Y1529D01*
X1572D01*
X1578Y1532D01*
X1583Y1536D01*
X1586Y1543D01*
Y1549D01*
X1583Y1555D01*
X1578Y1560D01*
X1572Y1563D01*
D02*
G37*
G36*
X605Y1539D02*
X598D01*
X592Y1537D01*
X587Y1532D01*
X584Y1526D01*
Y1519D01*
X587Y1513D01*
X592Y1508D01*
X598Y1506D01*
X605D01*
X611Y1508D01*
X615Y1513D01*
X618Y1519D01*
Y1526D01*
X615Y1532D01*
X611Y1537D01*
X605Y1539D01*
D02*
G37*
G36*
X555D02*
X548D01*
X542Y1537D01*
X537Y1532D01*
X534Y1526D01*
Y1519D01*
X537Y1513D01*
X542Y1508D01*
X548Y1506D01*
X555D01*
X561Y1508D01*
X565Y1513D01*
X568Y1519D01*
Y1526D01*
X565Y1532D01*
X561Y1537D01*
X555Y1539D01*
D02*
G37*
G36*
X455D02*
X448D01*
X442Y1537D01*
X437Y1532D01*
X434Y1526D01*
Y1519D01*
X437Y1513D01*
X442Y1508D01*
X448Y1506D01*
X455D01*
X461Y1508D01*
X465Y1513D01*
X468Y1519D01*
Y1526D01*
X465Y1532D01*
X461Y1537D01*
X455Y1539D01*
D02*
G37*
G36*
X1682Y1536D02*
X1676D01*
X1670Y1534D01*
X1665Y1529D01*
X1662Y1523D01*
Y1516D01*
X1665Y1510D01*
X1670Y1505D01*
X1676Y1503D01*
X1682D01*
X1689Y1505D01*
X1693Y1510D01*
X1696Y1516D01*
Y1523D01*
X1693Y1529D01*
X1689Y1534D01*
X1682Y1536D01*
D02*
G37*
G36*
X1083Y1531D02*
X1075D01*
X1068Y1528D01*
X1062Y1523D01*
X1059Y1516D01*
Y1508D01*
X1062Y1501D01*
X1068Y1495D01*
X1075Y1492D01*
X1083D01*
X1090Y1495D01*
X1093Y1498D01*
X1125D01*
X1125Y1497D01*
X1131Y1491D01*
X1138Y1488D01*
X1146D01*
X1153Y1491D01*
X1158Y1497D01*
X1161Y1504D01*
Y1512D01*
X1158Y1519D01*
X1153Y1525D01*
X1146Y1528D01*
X1138D01*
X1131Y1525D01*
X1128Y1522D01*
X1096D01*
X1095Y1523D01*
X1090Y1528D01*
X1083Y1531D01*
D02*
G37*
G36*
X117Y1563D02*
X107D01*
X97Y1560D01*
X88Y1555D01*
X81Y1548D01*
X76Y1540D01*
X74Y1530D01*
Y1520D01*
X76Y1510D01*
X81Y1502D01*
X88Y1495D01*
X97Y1490D01*
X107Y1487D01*
X117D01*
X126Y1490D01*
X135Y1495D01*
X142Y1502D01*
X147Y1510D01*
X150Y1520D01*
Y1530D01*
X147Y1540D01*
X142Y1548D01*
X135Y1555D01*
X126Y1560D01*
X117Y1563D01*
D02*
G37*
G36*
X1020Y1464D02*
X1012D01*
X1005Y1461D01*
X1000Y1455D01*
X997Y1448D01*
Y1440D01*
X1000Y1433D01*
X1005Y1428D01*
X1012Y1425D01*
X1020D01*
X1028Y1428D01*
X1030Y1430D01*
X1055D01*
X1056Y1428D01*
X1062Y1422D01*
X1069Y1419D01*
X1077D01*
X1084Y1422D01*
X1090Y1428D01*
X1093Y1435D01*
Y1443D01*
X1090Y1450D01*
X1084Y1456D01*
X1077Y1459D01*
X1069D01*
X1062Y1456D01*
X1060Y1454D01*
X1034D01*
X1033Y1455D01*
X1028Y1461D01*
X1020Y1464D01*
D02*
G37*
G36*
X1269Y1434D02*
X1262D01*
X1256Y1432D01*
X1252Y1427D01*
X1249Y1421D01*
Y1414D01*
X1252Y1408D01*
X1256Y1403D01*
X1262Y1401D01*
X1269D01*
X1275Y1403D01*
X1280Y1408D01*
X1282Y1414D01*
Y1421D01*
X1280Y1427D01*
X1275Y1432D01*
X1269Y1434D01*
D02*
G37*
G36*
X87Y1421D02*
X78D01*
X70Y1419D01*
X62Y1415D01*
X56Y1408D01*
X51Y1400D01*
X49Y1392D01*
Y1383D01*
X51Y1374D01*
X56Y1367D01*
X62Y1360D01*
X70Y1356D01*
X78Y1354D01*
X87D01*
X96Y1356D01*
X103Y1360D01*
X110Y1367D01*
X114Y1374D01*
X117Y1383D01*
Y1392D01*
X114Y1400D01*
X110Y1408D01*
X103Y1415D01*
X96Y1419D01*
X87Y1421D01*
D02*
G37*
G36*
X1564Y1354D02*
X1558D01*
X1552Y1351D01*
X1547Y1347D01*
X1544Y1341D01*
Y1334D01*
X1547Y1328D01*
X1552Y1323D01*
X1558Y1320D01*
X1564D01*
X1571Y1323D01*
X1575Y1328D01*
X1578Y1334D01*
Y1341D01*
X1575Y1347D01*
X1571Y1351D01*
X1564Y1354D01*
D02*
G37*
G36*
X187Y1371D02*
X178D01*
X170Y1369D01*
X162Y1365D01*
X156Y1358D01*
X151Y1350D01*
X149Y1342D01*
Y1333D01*
X151Y1324D01*
X156Y1317D01*
X162Y1310D01*
X170Y1306D01*
X178Y1304D01*
X187D01*
X196Y1306D01*
X203Y1310D01*
X210Y1317D01*
X214Y1324D01*
X217Y1333D01*
Y1342D01*
X214Y1350D01*
X210Y1358D01*
X203Y1365D01*
X196Y1369D01*
X187Y1371D01*
D02*
G37*
G36*
X1278Y1324D02*
X1271D01*
X1265Y1321D01*
X1260Y1317D01*
X1258Y1310D01*
Y1304D01*
X1260Y1298D01*
X1265Y1293D01*
X1271Y1290D01*
X1278D01*
X1284Y1293D01*
X1289Y1298D01*
X1291Y1304D01*
Y1310D01*
X1289Y1317D01*
X1284Y1321D01*
X1278Y1324D01*
D02*
G37*
G36*
Y1261D02*
X1271D01*
X1265Y1258D01*
X1260Y1254D01*
X1258Y1247D01*
Y1241D01*
X1260Y1235D01*
X1265Y1230D01*
X1271Y1227D01*
X1278D01*
X1284Y1230D01*
X1289Y1235D01*
X1291Y1241D01*
Y1247D01*
X1289Y1254D01*
X1284Y1258D01*
X1278Y1261D01*
D02*
G37*
G36*
X1338Y1239D02*
X1331D01*
X1325Y1237D01*
X1320Y1232D01*
X1318Y1226D01*
Y1219D01*
X1320Y1213D01*
X1325Y1208D01*
X1331Y1206D01*
X1338D01*
X1344Y1208D01*
X1349Y1213D01*
X1351Y1219D01*
Y1226D01*
X1349Y1232D01*
X1344Y1237D01*
X1338Y1239D01*
D02*
G37*
G36*
X187Y1271D02*
X178D01*
X170Y1269D01*
X162Y1265D01*
X156Y1258D01*
X151Y1250D01*
X149Y1242D01*
Y1233D01*
X151Y1224D01*
X156Y1217D01*
X162Y1210D01*
X170Y1206D01*
X178Y1204D01*
X187D01*
X196Y1206D01*
X203Y1210D01*
X210Y1217D01*
X214Y1224D01*
X217Y1233D01*
Y1242D01*
X214Y1250D01*
X210Y1258D01*
X203Y1265D01*
X196Y1269D01*
X187Y1271D01*
D02*
G37*
G36*
X117Y1220D02*
X107D01*
X97Y1218D01*
X88Y1213D01*
X81Y1206D01*
X76Y1197D01*
X74Y1187D01*
Y1177D01*
X76Y1168D01*
X81Y1159D01*
X88Y1152D01*
X97Y1147D01*
X107Y1145D01*
X117D01*
X126Y1147D01*
X135Y1152D01*
X142Y1159D01*
X147Y1168D01*
X150Y1177D01*
Y1187D01*
X147Y1197D01*
X142Y1206D01*
X135Y1213D01*
X126Y1218D01*
X117Y1220D01*
D02*
G37*
G36*
X941Y1103D02*
X935D01*
X929Y1101D01*
X924Y1096D01*
X921Y1090D01*
Y1083D01*
X924Y1077D01*
X929Y1072D01*
X935Y1070D01*
X941D01*
X948Y1072D01*
X952Y1077D01*
X955Y1083D01*
Y1090D01*
X952Y1096D01*
X948Y1101D01*
X941Y1103D01*
D02*
G37*
G36*
X87Y1075D02*
X78D01*
X70Y1073D01*
X62Y1068D01*
X56Y1062D01*
X51Y1054D01*
X49Y1045D01*
Y1036D01*
X51Y1028D01*
X56Y1020D01*
X62Y1014D01*
X70Y1009D01*
X78Y1007D01*
X87D01*
X96Y1009D01*
X103Y1014D01*
X110Y1020D01*
X114Y1028D01*
X117Y1036D01*
Y1045D01*
X114Y1054D01*
X110Y1062D01*
X103Y1068D01*
X96Y1073D01*
X87Y1075D01*
D02*
G37*
G36*
X187Y1025D02*
X178D01*
X170Y1023D01*
X162Y1018D01*
X156Y1012D01*
X151Y1004D01*
X149Y995D01*
Y986D01*
X151Y978D01*
X156Y970D01*
X162Y964D01*
X170Y959D01*
X178Y957D01*
X187D01*
X196Y959D01*
X203Y964D01*
X210Y970D01*
X214Y978D01*
X217Y986D01*
Y995D01*
X214Y1004D01*
X210Y1012D01*
X203Y1018D01*
X196Y1023D01*
X187Y1025D01*
D02*
G37*
G36*
X1025Y989D02*
X1018D01*
X1012Y987D01*
X1007Y982D01*
X1005Y976D01*
Y969D01*
X1007Y963D01*
X1012Y958D01*
X1018Y956D01*
X1025D01*
X1031Y958D01*
X1036Y963D01*
X1038Y969D01*
Y976D01*
X1036Y982D01*
X1031Y987D01*
X1025Y989D01*
D02*
G37*
G36*
X930D02*
X924D01*
X918Y987D01*
X913Y982D01*
X910Y976D01*
Y969D01*
X913Y963D01*
X918Y958D01*
X924Y956D01*
X930D01*
X937Y958D01*
X941Y963D01*
X944Y969D01*
Y976D01*
X941Y982D01*
X937Y987D01*
X930Y989D01*
D02*
G37*
G36*
X659Y930D02*
X652D01*
X646Y928D01*
X641Y923D01*
X639Y917D01*
Y910D01*
X641Y904D01*
X646Y899D01*
X652Y897D01*
X659D01*
X665Y899D01*
X670Y904D01*
X672Y910D01*
Y917D01*
X670Y923D01*
X665Y928D01*
X659Y930D01*
D02*
G37*
G36*
X1375Y918D02*
X1369D01*
X1363Y916D01*
X1358Y911D01*
X1355Y905D01*
Y898D01*
X1358Y892D01*
X1363Y887D01*
X1369Y885D01*
X1375D01*
X1382Y887D01*
X1386Y892D01*
X1389Y898D01*
Y905D01*
X1386Y911D01*
X1382Y916D01*
X1375Y918D01*
D02*
G37*
G36*
X187Y925D02*
X178D01*
X170Y923D01*
X162Y918D01*
X156Y912D01*
X151Y904D01*
X149Y895D01*
Y886D01*
X151Y878D01*
X156Y870D01*
X162Y864D01*
X170Y859D01*
X178Y857D01*
X187D01*
X196Y859D01*
X203Y864D01*
X210Y870D01*
X214Y878D01*
X217Y886D01*
Y895D01*
X214Y904D01*
X210Y912D01*
X203Y918D01*
X196Y923D01*
X187Y925D01*
D02*
G37*
G36*
X358Y883D02*
X351D01*
X345Y880D01*
X340Y876D01*
X338Y869D01*
Y863D01*
X340Y857D01*
X345Y852D01*
X351Y849D01*
X358D01*
X364Y852D01*
X369Y857D01*
X371Y863D01*
Y869D01*
X369Y876D01*
X364Y880D01*
X358Y883D01*
D02*
G37*
G36*
X1078Y871D02*
X1071D01*
X1065Y869D01*
X1061Y864D01*
X1058Y858D01*
Y851D01*
X1061Y845D01*
X1065Y840D01*
X1071Y838D01*
X1078D01*
X1084Y840D01*
X1089Y845D01*
X1092Y851D01*
Y858D01*
X1089Y864D01*
X1084Y869D01*
X1078Y871D01*
D02*
G37*
G36*
X1549Y653D02*
X1543D01*
X1536Y651D01*
X1532Y646D01*
X1529Y640D01*
Y633D01*
X1532Y627D01*
X1536Y622D01*
X1543Y620D01*
X1549D01*
X1555Y622D01*
X1560Y627D01*
X1563Y633D01*
Y640D01*
X1560Y646D01*
X1555Y651D01*
X1549Y653D01*
D02*
G37*
G36*
X1078Y641D02*
X1071D01*
X1065Y638D01*
X1060Y634D01*
X1058Y627D01*
Y621D01*
X1060Y615D01*
X1065Y610D01*
X1071Y607D01*
X1078D01*
X1084Y610D01*
X1089Y615D01*
X1091Y621D01*
Y627D01*
X1089Y634D01*
X1084Y638D01*
X1078Y641D01*
D02*
G37*
G36*
X659Y603D02*
X652D01*
X646Y601D01*
X641Y596D01*
X639Y590D01*
Y583D01*
X641Y577D01*
X646Y572D01*
X652Y570D01*
X659D01*
X665Y572D01*
X670Y577D01*
X672Y583D01*
Y590D01*
X670Y596D01*
X665Y601D01*
X659Y603D01*
D02*
G37*
G36*
X1381Y584D02*
X1375D01*
X1368Y581D01*
X1364Y576D01*
X1361Y570D01*
Y564D01*
X1364Y557D01*
X1368Y553D01*
X1375Y550D01*
X1381D01*
X1387Y553D01*
X1392Y557D01*
X1395Y564D01*
Y570D01*
X1392Y576D01*
X1387Y581D01*
X1381Y584D01*
D02*
G37*
G36*
X1715Y165D02*
X1702D01*
X1689Y163D01*
X1677Y158D01*
X1666Y150D01*
X1657Y141D01*
X1649Y130D01*
X1644Y118D01*
X1642Y105D01*
Y92D01*
X1644Y79D01*
X1649Y67D01*
X1657Y56D01*
X1666Y46D01*
X1677Y39D01*
X1689Y34D01*
X1702Y31D01*
X1715D01*
X1728Y34D01*
X1740Y39D01*
X1751Y46D01*
X1761Y56D01*
X1768Y67D01*
X1773Y79D01*
X1776Y92D01*
Y105D01*
X1773Y118D01*
X1768Y130D01*
X1761Y141D01*
X1751Y150D01*
X1740Y158D01*
X1728Y163D01*
X1715Y165D01*
D02*
G37*
%LPD*%
D10*
X1019Y1442D02*
X1070D01*
X1073Y1439D01*
X1016Y1444D02*
X1019Y1442D01*
X1079Y1512D02*
X1081Y1510D01*
X1140D01*
X1142Y1508D01*
X724Y504D02*
X1138D01*
X539D02*
X724D01*
D34*
X1280Y317D02*
D03*
Y266D02*
D03*
X484Y309D02*
D03*
Y258D02*
D03*
X886Y323D02*
D03*
Y272D02*
D03*
X1335Y317D02*
D03*
Y266D02*
D03*
D36*
X1693Y228D02*
D03*
Y346D02*
D03*
X1776Y232D02*
D03*
Y350D02*
D03*
X335Y224D02*
D03*
Y343D02*
D03*
X417Y224D02*
D03*
Y343D02*
D03*
X685Y220D02*
D03*
Y339D02*
D03*
X768Y217D02*
D03*
Y335D02*
D03*
X1402Y209D02*
D03*
Y327D02*
D03*
X1528Y217D02*
D03*
Y335D02*
D03*
X1189Y220D02*
D03*
Y339D02*
D03*
X1106Y220D02*
D03*
Y339D02*
D03*
X551Y315D02*
D03*
Y197D02*
D03*
X953Y327D02*
D03*
Y209D02*
D03*
X1610Y224D02*
D03*
Y343D02*
D03*
D63*
X1073Y1439D02*
D03*
X1016Y1444D02*
D03*
X1079Y1512D02*
D03*
X1087Y528D02*
D03*
X1426Y568D02*
D03*
X1546Y585D02*
D03*
X146Y339D02*
D03*
X71Y374D02*
D03*
X146Y378D02*
D03*
X142Y409D02*
D03*
X71D02*
D03*
X106D02*
D03*
X1142Y1508D02*
D03*
X776Y539D02*
D03*
X705Y559D02*
D03*
X71Y335D02*
D03*
X110D02*
D03*
X106Y370D02*
D03*
D65*
X244Y221D02*
Y311D01*
X244Y220D02*
X244Y221D01*
D68*
X1776Y1776D02*
D03*
Y1516D02*
D03*
D69*
Y1776D02*
D03*
Y1516D02*
D03*
D70*
X651Y1522D02*
D03*
X451D02*
D03*
X601D02*
D03*
X551D02*
D03*
X1138Y504D02*
D03*
X724D02*
D03*
X539D02*
D03*
X474Y516D02*
D03*
X1579Y1686D02*
D03*
X1283Y272D02*
D03*
X1378Y567D02*
D03*
X1287Y323D02*
D03*
X1331D02*
D03*
X1382D02*
D03*
X1075Y854D02*
D03*
X1074Y624D02*
D03*
X938Y1087D02*
D03*
X1335Y1274D02*
D03*
X1275Y1244D02*
D03*
X1335Y1222D02*
D03*
X1022Y972D02*
D03*
X1670Y1697D02*
D03*
X1776Y1693D02*
D03*
Y1598D02*
D03*
X1610Y228D02*
D03*
Y346D02*
D03*
X693Y220D02*
D03*
X555D02*
D03*
X1394Y232D02*
D03*
X969D02*
D03*
X454Y232D02*
D03*
X331Y228D02*
D03*
X356Y644D02*
D03*
X1528Y260D02*
D03*
X1169Y220D02*
D03*
X728Y217D02*
D03*
X957Y323D02*
D03*
X915Y321D02*
D03*
X870Y323D02*
D03*
X728Y335D02*
D03*
X134Y71D02*
D03*
X98D02*
D03*
X55D02*
D03*
X130Y98D02*
D03*
X94D02*
D03*
X130Y130D02*
D03*
X87D02*
D03*
X130Y157D02*
D03*
X87D02*
D03*
X51D02*
D03*
X55Y98D02*
D03*
X713Y256D02*
D03*
X1106Y260D02*
D03*
X656Y587D02*
D03*
X1193Y516D02*
D03*
X914Y528D02*
D03*
X850D02*
D03*
X1260Y524D02*
D03*
X1766Y628D02*
D03*
X1546Y636D02*
D03*
X1275Y1307D02*
D03*
X1679Y1520D02*
D03*
X1679Y1772D02*
D03*
X1569Y1546D02*
D03*
X1215Y1417D02*
D03*
X1266D02*
D03*
X1561Y1337D02*
D03*
X1612D02*
D03*
X1423Y902D02*
D03*
X1372D02*
D03*
X978Y972D02*
D03*
X927D02*
D03*
X656Y913D02*
D03*
X707D02*
D03*
X354Y866D02*
D03*
X957Y268D02*
D03*
X902D02*
D03*
X866D02*
D03*
X506Y256D02*
D03*
X543D02*
D03*
X1768Y445D02*
D03*
X1394Y268D02*
D03*
X1343Y269D02*
D03*
X1110Y339D02*
D03*
Y220D02*
D03*
X1531Y217D02*
D03*
X1693Y354D02*
D03*
X1693Y228D02*
D03*
X1776D02*
D03*
Y346D02*
D03*
X55Y126D02*
D03*
X406Y516D02*
D03*
X535Y308D02*
D03*
X559D02*
D03*
X512D02*
D03*
X488D02*
D03*
X461D02*
D03*
X346Y520D02*
D03*
X476Y259D02*
D03*
X244Y244D02*
D03*
D79*
X244Y311D02*
D03*
Y361D02*
D03*
Y411D02*
D03*
Y461D02*
D03*
D80*
X98Y386D02*
D03*
D81*
X83Y1041D02*
D03*
X183Y991D02*
D03*
X83Y941D02*
D03*
X183Y891D02*
D03*
X83Y1387D02*
D03*
X183Y1337D02*
D03*
X83Y1287D02*
D03*
X183Y1237D02*
D03*
X83Y1730D02*
D03*
X183Y1680D02*
D03*
X83Y1630D02*
D03*
X183Y1580D02*
D03*
X244Y643D02*
D03*
X194Y543D02*
D03*
X144Y643D02*
D03*
X94Y543D02*
D03*
D82*
X112Y836D02*
D03*
Y1182D02*
D03*
Y1525D02*
D03*
X39Y614D02*
D03*
M02*
