G04*
G04 #@! TF.GenerationSoftware,Altium Limited,Altium Designer,21.9.2 (33)*
G04*
G04 Layer_Color=128*
%FSLAX23Y23*%
%MOIN*%
G70*
G04*
G04 #@! TF.SameCoordinates,057B0E17-ACE6-4E06-8752-021C102DDC49*
G04*
G04*
G04 #@! TF.FilePolarity,Positive*
G04*
G01*
G75*
%ADD91C,0.002*%
D91*
X67Y1041D02*
X98D01*
X83Y1025D02*
Y1057D01*
X167Y991D02*
X198D01*
X183Y975D02*
Y1007D01*
X67Y941D02*
X98D01*
X83Y925D02*
Y957D01*
X167Y891D02*
X198D01*
X183Y875D02*
Y907D01*
X82Y836D02*
X141D01*
X112Y806D02*
Y865D01*
X67Y1387D02*
X98D01*
X83Y1372D02*
Y1403D01*
X167Y1337D02*
X198D01*
X183Y1322D02*
Y1353D01*
X67Y1287D02*
X98D01*
X83Y1272D02*
Y1303D01*
X167Y1237D02*
X198D01*
X183Y1222D02*
Y1253D01*
X82Y1182D02*
X141D01*
X112Y1153D02*
Y1212D01*
X67Y1730D02*
X98D01*
X83Y1714D02*
Y1746D01*
X167Y1680D02*
X198D01*
X183Y1664D02*
Y1696D01*
X67Y1630D02*
X98D01*
X83Y1614D02*
Y1646D01*
X167Y1580D02*
X198D01*
X183Y1564D02*
Y1596D01*
X82Y1525D02*
X141D01*
X112Y1495D02*
Y1554D01*
X229Y643D02*
X260D01*
X244Y628D02*
Y659D01*
X179Y543D02*
X210D01*
X194Y528D02*
Y559D01*
X129Y643D02*
X160D01*
X144Y628D02*
Y659D01*
X79Y543D02*
X110D01*
X94Y528D02*
Y559D01*
X10Y614D02*
X69D01*
X39Y585D02*
Y644D01*
X1766Y1776D02*
X1785D01*
X1776Y1766D02*
Y1785D01*
X1766Y1516D02*
X1785D01*
X1776Y1506D02*
Y1526D01*
X1766Y1776D02*
X1785D01*
X1776Y1766D02*
Y1785D01*
X1766Y1516D02*
X1785D01*
X1776Y1506D02*
Y1526D01*
X1650Y98D02*
X1768D01*
X1709Y39D02*
Y157D01*
X350Y1736D02*
X469D01*
X409Y1677D02*
Y1795D01*
X1067Y1439D02*
X1079D01*
X1073Y1433D02*
Y1445D01*
X1010Y1444D02*
X1022D01*
X1016Y1438D02*
Y1450D01*
X1073Y1512D02*
X1085D01*
X1079Y1506D02*
Y1518D01*
X647Y1522D02*
X655D01*
X651Y1519D02*
Y1526D01*
X447Y1522D02*
X455D01*
X451Y1519D02*
Y1526D01*
X597Y1522D02*
X605D01*
X601Y1519D02*
Y1526D01*
X547Y1522D02*
X555D01*
X551Y1519D02*
Y1526D01*
X1134Y504D02*
X1142D01*
X1138Y500D02*
Y508D01*
X720Y504D02*
X728D01*
X724Y500D02*
Y508D01*
X535Y504D02*
X543D01*
X539Y500D02*
Y508D01*
X470Y516D02*
X478D01*
X474Y512D02*
Y520D01*
X1081Y528D02*
X1093D01*
X1087Y522D02*
Y533D01*
X1575Y1686D02*
X1583D01*
X1579Y1682D02*
Y1690D01*
X1280Y272D02*
X1287D01*
X1283Y268D02*
Y276D01*
X1374Y567D02*
X1382D01*
X1378Y563D02*
Y571D01*
X1421Y568D02*
X1432D01*
X1426Y562D02*
Y574D01*
X1540Y585D02*
X1552D01*
X1546Y579D02*
Y591D01*
X1283Y323D02*
X1291D01*
X1287Y319D02*
Y327D01*
X1327Y323D02*
X1335D01*
X1331Y319D02*
Y327D01*
X1378Y323D02*
X1386D01*
X1382Y319D02*
Y327D01*
X1071Y854D02*
X1079D01*
X1075Y850D02*
Y858D01*
X1070Y624D02*
X1078D01*
X1074Y620D02*
Y628D01*
X934Y1087D02*
X942D01*
X938Y1083D02*
Y1091D01*
X1331Y1274D02*
X1339D01*
X1335Y1270D02*
Y1278D01*
X1271Y1244D02*
X1278D01*
X1275Y1240D02*
Y1248D01*
X1331Y1222D02*
X1339D01*
X1335Y1219D02*
Y1226D01*
X1018Y972D02*
X1026D01*
X1022Y969D02*
Y976D01*
X1666Y1697D02*
X1674D01*
X1670Y1693D02*
Y1701D01*
X1772Y1693D02*
X1780D01*
X1776Y1689D02*
Y1697D01*
X1772Y1598D02*
X1780D01*
X1776Y1594D02*
Y1602D01*
X1606Y228D02*
X1614D01*
X1610Y224D02*
Y232D01*
X1606Y346D02*
X1614D01*
X1610Y343D02*
Y350D01*
X689Y220D02*
X697D01*
X693Y217D02*
Y224D01*
X551Y220D02*
X559D01*
X555Y217D02*
Y224D01*
X1390Y232D02*
X1398D01*
X1394Y228D02*
Y236D01*
X965Y232D02*
X972D01*
X969Y228D02*
Y236D01*
X450Y232D02*
X458D01*
X454Y228D02*
Y236D01*
X140Y339D02*
X152D01*
X146Y333D02*
Y344D01*
X65Y374D02*
X77D01*
X71Y368D02*
Y380D01*
X140Y378D02*
X152D01*
X146Y372D02*
Y384D01*
X136Y409D02*
X148D01*
X142Y404D02*
Y415D01*
X65Y409D02*
X77D01*
X71Y404D02*
Y415D01*
X100Y409D02*
X112D01*
X106Y404D02*
Y415D01*
X327Y228D02*
X335D01*
X331Y224D02*
Y232D01*
X352Y644D02*
X360D01*
X356Y640D02*
Y648D01*
X1524Y260D02*
X1531D01*
X1528Y256D02*
Y264D01*
X1165Y220D02*
X1173D01*
X1169Y217D02*
Y224D01*
X724Y217D02*
X732D01*
X728Y213D02*
Y220D01*
X953Y323D02*
X961D01*
X957Y319D02*
Y327D01*
X911Y321D02*
X919D01*
X915Y317D02*
Y325D01*
X866Y323D02*
X874D01*
X870Y319D02*
Y327D01*
X724Y335D02*
X732D01*
X728Y331D02*
Y339D01*
X130Y71D02*
X138D01*
X134Y67D02*
Y75D01*
X94Y71D02*
X102D01*
X98Y67D02*
Y75D01*
X51Y71D02*
X59D01*
X55Y67D02*
Y75D01*
X126Y98D02*
X134D01*
X130Y94D02*
Y102D01*
X91Y98D02*
X98D01*
X94Y94D02*
Y102D01*
X126Y130D02*
X134D01*
X130Y126D02*
Y134D01*
X83Y130D02*
X91D01*
X87Y126D02*
Y134D01*
X126Y157D02*
X134D01*
X130Y154D02*
Y161D01*
X83Y157D02*
X91D01*
X87Y154D02*
Y161D01*
X47Y157D02*
X55D01*
X51Y154D02*
Y161D01*
Y98D02*
X59D01*
X55Y94D02*
Y102D01*
X709Y256D02*
X717D01*
X713Y252D02*
Y260D01*
X1102D02*
X1110D01*
X1106Y256D02*
Y264D01*
X652Y587D02*
X659D01*
X656Y583D02*
Y591D01*
X1189Y516D02*
X1197D01*
X1193Y512D02*
Y520D01*
X910Y528D02*
X918D01*
X914Y524D02*
Y531D01*
X846Y528D02*
X854D01*
X850Y524D02*
Y531D01*
X1256Y524D02*
X1264D01*
X1260Y520D02*
Y528D01*
X1762Y628D02*
X1770D01*
X1766Y625D02*
Y632D01*
X1542Y636D02*
X1550D01*
X1546Y632D02*
Y640D01*
X1271Y1307D02*
X1278D01*
X1275Y1303D02*
Y1311D01*
X1675Y1520D02*
X1683D01*
X1679Y1516D02*
Y1524D01*
X1675Y1772D02*
X1683D01*
X1679Y1768D02*
Y1776D01*
X1565Y1546D02*
X1573D01*
X1569Y1542D02*
Y1550D01*
X1211Y1417D02*
X1219D01*
X1215Y1413D02*
Y1421D01*
X1262Y1417D02*
X1270D01*
X1266Y1413D02*
Y1421D01*
X1557Y1337D02*
X1565D01*
X1561Y1333D02*
Y1341D01*
X1608Y1337D02*
X1616D01*
X1612Y1333D02*
Y1341D01*
X1419Y902D02*
X1427D01*
X1423Y898D02*
Y906D01*
X1368Y902D02*
X1376D01*
X1372Y898D02*
Y906D01*
X974Y972D02*
X982D01*
X978Y969D02*
Y976D01*
X923Y972D02*
X931D01*
X927Y969D02*
Y976D01*
X652Y913D02*
X659D01*
X656Y909D02*
Y917D01*
X703Y913D02*
X711D01*
X707Y909D02*
Y917D01*
X350Y866D02*
X358D01*
X354Y862D02*
Y870D01*
X953Y268D02*
X961D01*
X957Y264D02*
Y272D01*
X898Y268D02*
X906D01*
X902Y264D02*
Y272D01*
X862Y268D02*
X870D01*
X866Y264D02*
Y272D01*
X502Y256D02*
X510D01*
X506Y252D02*
Y260D01*
X539Y256D02*
X547D01*
X543Y252D02*
Y260D01*
X1764Y445D02*
X1772D01*
X1768Y441D02*
Y449D01*
X1390Y268D02*
X1398D01*
X1394Y264D02*
Y272D01*
X1339Y269D02*
X1346D01*
X1343Y265D02*
Y273D01*
X1106Y339D02*
X1114D01*
X1110Y335D02*
Y343D01*
X1106Y220D02*
X1114D01*
X1110Y217D02*
Y224D01*
X1528Y217D02*
X1535D01*
X1531Y213D02*
Y220D01*
X1689Y354D02*
X1697D01*
X1693Y350D02*
Y358D01*
X1689Y228D02*
X1697D01*
X1693Y224D02*
Y232D01*
X1772Y228D02*
X1780D01*
X1776Y224D02*
Y232D01*
X1772Y346D02*
X1780D01*
X1776Y343D02*
Y350D01*
X1136Y1508D02*
X1148D01*
X1142Y1502D02*
Y1514D01*
X51Y126D02*
X59D01*
X55Y122D02*
Y130D01*
X402Y516D02*
X409D01*
X406Y512D02*
Y520D01*
X531Y308D02*
X539D01*
X535Y304D02*
Y312D01*
X555Y308D02*
X563D01*
X559Y304D02*
Y312D01*
X508Y308D02*
X516D01*
X512Y304D02*
Y312D01*
X484Y308D02*
X492D01*
X488Y304D02*
Y312D01*
X457Y308D02*
X465D01*
X461Y304D02*
Y312D01*
X770Y539D02*
X781D01*
X776Y533D02*
Y545D01*
X699Y559D02*
X711D01*
X705Y553D02*
Y565D01*
X343Y520D02*
X350D01*
X346Y516D02*
Y524D01*
X472Y259D02*
X480D01*
X476Y255D02*
Y263D01*
X65Y335D02*
X77D01*
X71Y329D02*
Y341D01*
X240Y244D02*
X248D01*
X244Y240D02*
Y248D01*
X104Y335D02*
X116D01*
X110Y329D02*
Y341D01*
X100Y370D02*
X112D01*
X106Y364D02*
Y376D01*
M02*
